%TF.GenerationSoftware,KiCad,Pcbnew,(6.0.4)*%
%TF.CreationDate,2022-07-21T21:10:16-04:00*%
%TF.ProjectId,XpandShieldMK3_2,5870616e-6453-4686-9965-6c644d4b335f,rev?*%
%TF.SameCoordinates,Original*%
%TF.FileFunction,Copper,L2,Bot*%
%TF.FilePolarity,Positive*%
%FSLAX46Y46*%
G04 Gerber Fmt 4.6, Leading zero omitted, Abs format (unit mm)*
G04 Created by KiCad (PCBNEW (6.0.4)) date 2022-07-21 21:10:16*
%MOMM*%
%LPD*%
G01*
G04 APERTURE LIST*
G04 Aperture macros list*
%AMRoundRect*
0 Rectangle with rounded corners*
0 $1 Rounding radius*
0 $2 $3 $4 $5 $6 $7 $8 $9 X,Y pos of 4 corners*
0 Add a 4 corners polygon primitive as box body*
4,1,4,$2,$3,$4,$5,$6,$7,$8,$9,$2,$3,0*
0 Add four circle primitives for the rounded corners*
1,1,$1+$1,$2,$3*
1,1,$1+$1,$4,$5*
1,1,$1+$1,$6,$7*
1,1,$1+$1,$8,$9*
0 Add four rect primitives between the rounded corners*
20,1,$1+$1,$2,$3,$4,$5,0*
20,1,$1+$1,$4,$5,$6,$7,0*
20,1,$1+$1,$6,$7,$8,$9,0*
20,1,$1+$1,$8,$9,$2,$3,0*%
G04 Aperture macros list end*
%TA.AperFunction,ComponentPad*%
%ADD10RoundRect,0.200000X-0.200000X-0.450000X0.200000X-0.450000X0.200000X0.450000X-0.200000X0.450000X0*%
%TD*%
%TA.AperFunction,ComponentPad*%
%ADD11O,0.800000X1.300000*%
%TD*%
%TA.AperFunction,ComponentPad*%
%ADD12RoundRect,0.250000X-0.375000X-0.250000X0.375000X-0.250000X0.375000X0.250000X-0.375000X0.250000X0*%
%TD*%
%TA.AperFunction,ViaPad*%
%ADD13C,1.000000*%
%TD*%
%TA.AperFunction,Conductor*%
%ADD14C,0.500000*%
%TD*%
%TA.AperFunction,Conductor*%
%ADD15C,0.250000*%
%TD*%
G04 APERTURE END LIST*
D10*
%TO.P,REF\u002A\u002A,1*%
%TO.N,PA06*%
X23565000Y-29865000D03*
D11*
%TO.P,REF\u002A\u002A,2*%
%TO.N,PA07*%
X24815000Y-29865000D03*
%TO.P,REF\u002A\u002A,3*%
%TO.N,P3v3*%
X26065000Y-29865000D03*
%TO.P,REF\u002A\u002A,4*%
%TO.N,GND*%
X27315000Y-29865000D03*
%TD*%
D12*
%TO.P,OPT_INT,1*%
%TO.N,PA07*%
X29440000Y-15815000D03*
%TO.P,OPT_INT,2*%
%TO.N,P3v3*%
X31440000Y-15815000D03*
%TO.P,OPT_INT,3*%
%TO.N,GND*%
X29440000Y-19315000D03*
%TO.P,OPT_INT,4*%
%TO.N,VLED0*%
X31440000Y-19315000D03*
%TD*%
%TO.P,OPT_INT,1*%
%TO.N,PA06*%
X25440000Y-15815000D03*
%TO.P,OPT_INT,2*%
%TO.N,P3v3*%
X27440000Y-15815000D03*
%TO.P,OPT_INT,3*%
%TO.N,GND*%
X25440000Y-19315000D03*
%TO.P,OPT_INT,4*%
%TO.N,VLED0*%
X27440000Y-19315000D03*
%TD*%
D13*
%TO.N,PA06*%
X28440000Y-23815000D03*
%TO.N,PA07*%
X29690000Y-23065000D03*
%TD*%
D14*
%TO.N,P3v3*%
X26065000Y-29865000D02*
X26065000Y-28940000D01*
X30440000Y-26315000D02*
X30440000Y-24565000D01*
X28815000Y-27940000D02*
X30440000Y-26315000D01*
X26065000Y-28940000D02*
X27065000Y-27940000D01*
X32940000Y-22065000D02*
X32940000Y-17315000D01*
X27065000Y-27940000D02*
X28815000Y-27940000D01*
X30440000Y-24565000D02*
X32940000Y-22065000D01*
X32940000Y-17315000D02*
X31440000Y-15815000D01*
D15*
%TO.N,PA06*%
X28440000Y-25840000D02*
X27790000Y-26490000D01*
X27790000Y-26490000D02*
X26040000Y-26490000D01*
X28440000Y-23815000D02*
X28440000Y-18815000D01*
X25440000Y-15815000D02*
X28440000Y-18815000D01*
X26040000Y-26490000D02*
X23565000Y-28965000D01*
X28440000Y-23815000D02*
X28440000Y-25840000D01*
X23565000Y-28965000D02*
X23565000Y-29865000D01*
%TO.N,PA07*%
X30389520Y-22365480D02*
X29690000Y-23065000D01*
X24815000Y-28815000D02*
X26377500Y-27252500D01*
X24815000Y-29865000D02*
X24815000Y-28815000D01*
X30389520Y-16764520D02*
X30389520Y-22365480D01*
X29690000Y-25565000D02*
X29690000Y-23065000D01*
X26377500Y-27252500D02*
X28002500Y-27252500D01*
X28002500Y-27252500D02*
X29690000Y-25565000D01*
X29440000Y-15815000D02*
X30389520Y-16764520D01*
%TD*%
%TA.AperFunction,Conductor*%
%TO.N,GND*%
G36*
X35132539Y-14835185D02*
G01*
X35178294Y-14887989D01*
X35189500Y-14939500D01*
X35189500Y-31190500D01*
X35169815Y-31257539D01*
X35117011Y-31303294D01*
X35065500Y-31314500D01*
X21814500Y-31314500D01*
X21747461Y-31294815D01*
X21701706Y-31242011D01*
X21690500Y-31190500D01*
X21690500Y-30368834D01*
X22914500Y-30368834D01*
X22917481Y-30400369D01*
X22938574Y-30460434D01*
X22952607Y-30500393D01*
X22962366Y-30528184D01*
X22967871Y-30535637D01*
X22967872Y-30535639D01*
X22992374Y-30568811D01*
X23042850Y-30637150D01*
X23050306Y-30642657D01*
X23144361Y-30712128D01*
X23144363Y-30712129D01*
X23151816Y-30717634D01*
X23160555Y-30720703D01*
X23160557Y-30720704D01*
X23202008Y-30735260D01*
X23279631Y-30762519D01*
X23287150Y-30763230D01*
X23287151Y-30763230D01*
X23308252Y-30765225D01*
X23308262Y-30765225D01*
X23311166Y-30765500D01*
X23818834Y-30765500D01*
X23821738Y-30765225D01*
X23821748Y-30765225D01*
X23842849Y-30763230D01*
X23842850Y-30763230D01*
X23850369Y-30762519D01*
X23927992Y-30735260D01*
X23969443Y-30720704D01*
X23969445Y-30720703D01*
X23978184Y-30717634D01*
X23985637Y-30712129D01*
X23985639Y-30712128D01*
X24079694Y-30642657D01*
X24087150Y-30637150D01*
X24139723Y-30565972D01*
X24195385Y-30523744D01*
X24265044Y-30518312D01*
X24329857Y-30554762D01*
X24332449Y-30557522D01*
X24337037Y-30563837D01*
X24343050Y-30568811D01*
X24430667Y-30641294D01*
X24463674Y-30668600D01*
X24612387Y-30738579D01*
X24620044Y-30740040D01*
X24620045Y-30740040D01*
X24693109Y-30753978D01*
X24773830Y-30769376D01*
X24937860Y-30759056D01*
X24945278Y-30756646D01*
X24945282Y-30756645D01*
X25047352Y-30723480D01*
X25094171Y-30708268D01*
X25151449Y-30671918D01*
X25226353Y-30624383D01*
X25226357Y-30624380D01*
X25232940Y-30620202D01*
X25345448Y-30500393D01*
X25345599Y-30500535D01*
X25397603Y-30460434D01*
X25467216Y-30454455D01*
X25529011Y-30487060D01*
X25542909Y-30503100D01*
X25587037Y-30563837D01*
X25593050Y-30568811D01*
X25680667Y-30641294D01*
X25713674Y-30668600D01*
X25862387Y-30738579D01*
X25870044Y-30740040D01*
X25870045Y-30740040D01*
X25943109Y-30753978D01*
X26023830Y-30769376D01*
X26187860Y-30759056D01*
X26195278Y-30756646D01*
X26195282Y-30756645D01*
X26297352Y-30723480D01*
X26344171Y-30708268D01*
X26442751Y-30645707D01*
X26509901Y-30626406D01*
X26576827Y-30646473D01*
X26601343Y-30667432D01*
X26705119Y-30782686D01*
X26714720Y-30791331D01*
X26857266Y-30894898D01*
X26868455Y-30901358D01*
X27029421Y-30973024D01*
X27041706Y-30977016D01*
X27047560Y-30978260D01*
X27061400Y-30977204D01*
X27065000Y-30967409D01*
X27065000Y-30964137D01*
X27565000Y-30964137D01*
X27568910Y-30977454D01*
X27579241Y-30978940D01*
X27588294Y-30977016D01*
X27600579Y-30973024D01*
X27761544Y-30901358D01*
X27772733Y-30894898D01*
X27915280Y-30791331D01*
X27924881Y-30782686D01*
X28042779Y-30651748D01*
X28050374Y-30641294D01*
X28138469Y-30488708D01*
X28143727Y-30476900D01*
X28198175Y-30309327D01*
X28200861Y-30296693D01*
X28214661Y-30165386D01*
X28215000Y-30158922D01*
X28215000Y-30132830D01*
X28210596Y-30117831D01*
X28209226Y-30116644D01*
X28201668Y-30115000D01*
X27582830Y-30115000D01*
X27567831Y-30119404D01*
X27566644Y-30120774D01*
X27565000Y-30128332D01*
X27565000Y-30964137D01*
X27065000Y-30964137D01*
X27065000Y-29597170D01*
X27565000Y-29597170D01*
X27569404Y-29612169D01*
X27570774Y-29613356D01*
X27578332Y-29615000D01*
X28197170Y-29615000D01*
X28212169Y-29610596D01*
X28213356Y-29609226D01*
X28215000Y-29601668D01*
X28215000Y-29571078D01*
X28214661Y-29564614D01*
X28200861Y-29433307D01*
X28198175Y-29420673D01*
X28143727Y-29253100D01*
X28138469Y-29241292D01*
X28050374Y-29088706D01*
X28042779Y-29078252D01*
X27924881Y-28947314D01*
X27915280Y-28938669D01*
X27772734Y-28835102D01*
X27761545Y-28828642D01*
X27600579Y-28756976D01*
X27588294Y-28752984D01*
X27582440Y-28751740D01*
X27568600Y-28752796D01*
X27565000Y-28762591D01*
X27565000Y-29597170D01*
X27065000Y-29597170D01*
X27065000Y-28765864D01*
X27058933Y-28745203D01*
X27058932Y-28675333D01*
X27090229Y-28622585D01*
X27147814Y-28565000D01*
X31184723Y-28565000D01*
X31203793Y-28782977D01*
X31205195Y-28788209D01*
X31255083Y-28974392D01*
X31260425Y-28994330D01*
X31352898Y-29192638D01*
X31356005Y-29197075D01*
X31356006Y-29197077D01*
X31475296Y-29367442D01*
X31475300Y-29367446D01*
X31478402Y-29371877D01*
X31633123Y-29526598D01*
X31812361Y-29652102D01*
X32010670Y-29744575D01*
X32015893Y-29745974D01*
X32015897Y-29745976D01*
X32182901Y-29790724D01*
X32222023Y-29801207D01*
X32440000Y-29820277D01*
X32657977Y-29801207D01*
X32697099Y-29790724D01*
X32864103Y-29745976D01*
X32864107Y-29745974D01*
X32869330Y-29744575D01*
X33067639Y-29652102D01*
X33246877Y-29526598D01*
X33401598Y-29371877D01*
X33404700Y-29367446D01*
X33404704Y-29367442D01*
X33523994Y-29197077D01*
X33523995Y-29197075D01*
X33527102Y-29192638D01*
X33619575Y-28994330D01*
X33624918Y-28974392D01*
X33674805Y-28788209D01*
X33676207Y-28782977D01*
X33695277Y-28565000D01*
X33676207Y-28347023D01*
X33652584Y-28258861D01*
X33620976Y-28140897D01*
X33620974Y-28140893D01*
X33619575Y-28135670D01*
X33527102Y-27937362D01*
X33454016Y-27832984D01*
X33404704Y-27762558D01*
X33404700Y-27762554D01*
X33401598Y-27758123D01*
X33246877Y-27603402D01*
X33067639Y-27477898D01*
X32869330Y-27385425D01*
X32864107Y-27384026D01*
X32864103Y-27384024D01*
X32663209Y-27330195D01*
X32663210Y-27330195D01*
X32657977Y-27328793D01*
X32440000Y-27309723D01*
X32222023Y-27328793D01*
X32216790Y-27330195D01*
X32216791Y-27330195D01*
X32015897Y-27384024D01*
X32015893Y-27384026D01*
X32010670Y-27385425D01*
X31812362Y-27477898D01*
X31807925Y-27481005D01*
X31807923Y-27481006D01*
X31637558Y-27600296D01*
X31637557Y-27600297D01*
X31633123Y-27603402D01*
X31478402Y-27758123D01*
X31475300Y-27762554D01*
X31475296Y-27762558D01*
X31425984Y-27832984D01*
X31352898Y-27937362D01*
X31260425Y-28135670D01*
X31259026Y-28140893D01*
X31259024Y-28140897D01*
X31227416Y-28258861D01*
X31203793Y-28347023D01*
X31199250Y-28398949D01*
X31186349Y-28546423D01*
X31185639Y-28554535D01*
X31184723Y-28565000D01*
X27147814Y-28565000D01*
X27235995Y-28476819D01*
X27297318Y-28443334D01*
X27323676Y-28440500D01*
X28745039Y-28440500D01*
X28756985Y-28441835D01*
X28757023Y-28441361D01*
X28765832Y-28442070D01*
X28774447Y-28444019D01*
X28783264Y-28443472D01*
X28783265Y-28443472D01*
X28827328Y-28440738D01*
X28835007Y-28440500D01*
X28850940Y-28440500D01*
X28855308Y-28439874D01*
X28855314Y-28439874D01*
X28861130Y-28439041D01*
X28871029Y-28438027D01*
X28903452Y-28436015D01*
X28908722Y-28435688D01*
X28917538Y-28435141D01*
X28925849Y-28432140D01*
X28928681Y-28431554D01*
X28945384Y-28427390D01*
X28948168Y-28426576D01*
X28956918Y-28425323D01*
X28999348Y-28406031D01*
X29008554Y-28402284D01*
X29044075Y-28389461D01*
X29044077Y-28389460D01*
X29052387Y-28386460D01*
X29059525Y-28381245D01*
X29062085Y-28379884D01*
X29076955Y-28371195D01*
X29079385Y-28369641D01*
X29087428Y-28365984D01*
X29122743Y-28335554D01*
X29130531Y-28329371D01*
X29141336Y-28321478D01*
X29152136Y-28310678D01*
X29158875Y-28304421D01*
X29189345Y-28278167D01*
X29189348Y-28278164D01*
X29196037Y-28272400D01*
X29200843Y-28264985D01*
X29206185Y-28258861D01*
X29215651Y-28247163D01*
X30744439Y-26718375D01*
X30753828Y-26710872D01*
X30753520Y-26710510D01*
X30760246Y-26704785D01*
X30767720Y-26700070D01*
X30802793Y-26660357D01*
X30808055Y-26654759D01*
X30819320Y-26643494D01*
X30825490Y-26635262D01*
X30831773Y-26627543D01*
X30856776Y-26599233D01*
X30856777Y-26599231D01*
X30862623Y-26592612D01*
X30866377Y-26584616D01*
X30867957Y-26582211D01*
X30876834Y-26567439D01*
X30878227Y-26564895D01*
X30883526Y-26557824D01*
X30899883Y-26514193D01*
X30903747Y-26505023D01*
X30919799Y-26470834D01*
X30919800Y-26470830D01*
X30923553Y-26462837D01*
X30924912Y-26454109D01*
X30925756Y-26451348D01*
X30930129Y-26434679D01*
X30930750Y-26431856D01*
X30933852Y-26423581D01*
X30937306Y-26377101D01*
X30938441Y-26367215D01*
X30939764Y-26358716D01*
X30940500Y-26353991D01*
X30940500Y-26338715D01*
X30940841Y-26329526D01*
X30943821Y-26289418D01*
X30944476Y-26280608D01*
X30942632Y-26271968D01*
X30942078Y-26263846D01*
X30940500Y-26248894D01*
X30940500Y-24823676D01*
X30960185Y-24756637D01*
X30976819Y-24735995D01*
X33244438Y-22468375D01*
X33253830Y-22460871D01*
X33253522Y-22460509D01*
X33260250Y-22454783D01*
X33267720Y-22450070D01*
X33278121Y-22438294D01*
X33302801Y-22410348D01*
X33308063Y-22404750D01*
X33319320Y-22393493D01*
X33321961Y-22389969D01*
X33321967Y-22389962D01*
X33325489Y-22385262D01*
X33331773Y-22377543D01*
X33356776Y-22349233D01*
X33356777Y-22349231D01*
X33362623Y-22342612D01*
X33366377Y-22334617D01*
X33367970Y-22332191D01*
X33376837Y-22317434D01*
X33378229Y-22314891D01*
X33383526Y-22307824D01*
X33399885Y-22264187D01*
X33403742Y-22255032D01*
X33423553Y-22212837D01*
X33424913Y-22204103D01*
X33425762Y-22201325D01*
X33430130Y-22184678D01*
X33430752Y-22181848D01*
X33433852Y-22173580D01*
X33437306Y-22127097D01*
X33438439Y-22117227D01*
X33440500Y-22103991D01*
X33440500Y-22088715D01*
X33440841Y-22079526D01*
X33443821Y-22039418D01*
X33444476Y-22030608D01*
X33442632Y-22021968D01*
X33442078Y-22013846D01*
X33440500Y-21998894D01*
X33440500Y-17384952D01*
X33441834Y-17373011D01*
X33441360Y-17372973D01*
X33442069Y-17364167D01*
X33444018Y-17355552D01*
X33440738Y-17302680D01*
X33440500Y-17295002D01*
X33440500Y-17279060D01*
X33439041Y-17268867D01*
X33438027Y-17258973D01*
X33435688Y-17221279D01*
X33435141Y-17212461D01*
X33432142Y-17204152D01*
X33431552Y-17201305D01*
X33427387Y-17184600D01*
X33426575Y-17181823D01*
X33425323Y-17173082D01*
X33421668Y-17165043D01*
X33421667Y-17165040D01*
X33406034Y-17130657D01*
X33402281Y-17121439D01*
X33386460Y-17077613D01*
X33381247Y-17070477D01*
X33379889Y-17067923D01*
X33371195Y-17053045D01*
X33369641Y-17050615D01*
X33365984Y-17042572D01*
X33335554Y-17007257D01*
X33329366Y-16999462D01*
X33321478Y-16988664D01*
X33310678Y-16977864D01*
X33304421Y-16971125D01*
X33278167Y-16940655D01*
X33278164Y-16940652D01*
X33272400Y-16933963D01*
X33264985Y-16929157D01*
X33258861Y-16923815D01*
X33247163Y-16914349D01*
X32351819Y-16019005D01*
X32318334Y-15957682D01*
X32315500Y-15931324D01*
X32315499Y-15520985D01*
X32315499Y-15517624D01*
X32308851Y-15456420D01*
X32258526Y-15322176D01*
X32172546Y-15207454D01*
X32165481Y-15202159D01*
X32064891Y-15126770D01*
X32064889Y-15126769D01*
X32057824Y-15121474D01*
X31923580Y-15071149D01*
X31862377Y-15064500D01*
X31440063Y-15064500D01*
X31017624Y-15064501D01*
X30956420Y-15071149D01*
X30822176Y-15121474D01*
X30815111Y-15126769D01*
X30815109Y-15126770D01*
X30714519Y-15202159D01*
X30707454Y-15207454D01*
X30621474Y-15322176D01*
X30571149Y-15456420D01*
X30564500Y-15517623D01*
X30564500Y-15520983D01*
X30564501Y-16109102D01*
X30544817Y-16176141D01*
X30492013Y-16221896D01*
X30422854Y-16231840D01*
X30359298Y-16202815D01*
X30352820Y-16196783D01*
X30351819Y-16195782D01*
X30318334Y-16134459D01*
X30315500Y-16108101D01*
X30315499Y-15520985D01*
X30315499Y-15517624D01*
X30308851Y-15456420D01*
X30258526Y-15322176D01*
X30172546Y-15207454D01*
X30165481Y-15202159D01*
X30064891Y-15126770D01*
X30064889Y-15126769D01*
X30057824Y-15121474D01*
X29923580Y-15071149D01*
X29862377Y-15064500D01*
X29440063Y-15064500D01*
X29017624Y-15064501D01*
X28956420Y-15071149D01*
X28822176Y-15121474D01*
X28815111Y-15126769D01*
X28815109Y-15126770D01*
X28714519Y-15202159D01*
X28707454Y-15207454D01*
X28621474Y-15322176D01*
X28571149Y-15456420D01*
X28564500Y-15517623D01*
X28564501Y-16112376D01*
X28571149Y-16173580D01*
X28621474Y-16307824D01*
X28707454Y-16422546D01*
X28714519Y-16427841D01*
X28815109Y-16503230D01*
X28815111Y-16503231D01*
X28822176Y-16508526D01*
X28956420Y-16558851D01*
X29017623Y-16565500D01*
X29057033Y-16565500D01*
X29608100Y-16565499D01*
X29675139Y-16585183D01*
X29695781Y-16601818D01*
X29977701Y-16883738D01*
X30011186Y-16945061D01*
X30014020Y-16971419D01*
X30014020Y-18192931D01*
X29994335Y-18259970D01*
X29941531Y-18305725D01*
X29877386Y-18316286D01*
X29867974Y-18315322D01*
X29861675Y-18315000D01*
X29707830Y-18315000D01*
X29692831Y-18319404D01*
X29691644Y-18320774D01*
X29690000Y-18328332D01*
X29690000Y-20297169D01*
X29694404Y-20312168D01*
X29695774Y-20313355D01*
X29703332Y-20314999D01*
X29861636Y-20314999D01*
X29868025Y-20314668D01*
X29877228Y-20313714D01*
X29945941Y-20326377D01*
X29996899Y-20374180D01*
X30014020Y-20437052D01*
X30014020Y-22158581D01*
X29994335Y-22225620D01*
X29977701Y-22246262D01*
X29933446Y-22290517D01*
X29872123Y-22324002D01*
X29831082Y-22325964D01*
X29695273Y-22309769D01*
X29688384Y-22310493D01*
X29688381Y-22310493D01*
X29534718Y-22326644D01*
X29534717Y-22326644D01*
X29527821Y-22327369D01*
X29521254Y-22329604D01*
X29521252Y-22329605D01*
X29374998Y-22379394D01*
X29374995Y-22379395D01*
X29368431Y-22381630D01*
X29225022Y-22469856D01*
X29220070Y-22474706D01*
X29220068Y-22474707D01*
X29109680Y-22582807D01*
X29109677Y-22582811D01*
X29104724Y-22587661D01*
X29100969Y-22593487D01*
X29100967Y-22593490D01*
X29043730Y-22682305D01*
X28990868Y-22727993D01*
X28921697Y-22737848D01*
X28858178Y-22708743D01*
X28820479Y-22649917D01*
X28815500Y-22615133D01*
X28815500Y-20431896D01*
X28835185Y-20364857D01*
X28887989Y-20319102D01*
X28952140Y-20308542D01*
X29012021Y-20314678D01*
X29018325Y-20315000D01*
X29172170Y-20315000D01*
X29187169Y-20310596D01*
X29188356Y-20309226D01*
X29190000Y-20301668D01*
X29190000Y-18332831D01*
X29185596Y-18317832D01*
X29184226Y-18316645D01*
X29176668Y-18315001D01*
X29018364Y-18315001D01*
X29011985Y-18315331D01*
X28917329Y-18325151D01*
X28904151Y-18327997D01*
X28751515Y-18378921D01*
X28738554Y-18384992D01*
X28700033Y-18408829D01*
X28632668Y-18427367D01*
X28565974Y-18406541D01*
X28547103Y-18391066D01*
X26933218Y-16777181D01*
X26899733Y-16715858D01*
X26904717Y-16646166D01*
X26946589Y-16590233D01*
X27012053Y-16565816D01*
X27020899Y-16565500D01*
X27434590Y-16565500D01*
X27862376Y-16565499D01*
X27923580Y-16558851D01*
X28057824Y-16508526D01*
X28064889Y-16503231D01*
X28064891Y-16503230D01*
X28165481Y-16427841D01*
X28172546Y-16422546D01*
X28258526Y-16307824D01*
X28308851Y-16173580D01*
X28315500Y-16112377D01*
X28315499Y-15517624D01*
X28308851Y-15456420D01*
X28258526Y-15322176D01*
X28172546Y-15207454D01*
X28165481Y-15202159D01*
X28064891Y-15126770D01*
X28064889Y-15126769D01*
X28057824Y-15121474D01*
X27923580Y-15071149D01*
X27862377Y-15064500D01*
X27440063Y-15064500D01*
X27017624Y-15064501D01*
X26956420Y-15071149D01*
X26822176Y-15121474D01*
X26815111Y-15126769D01*
X26815109Y-15126770D01*
X26714519Y-15202159D01*
X26707454Y-15207454D01*
X26621474Y-15322176D01*
X26571149Y-15456420D01*
X26564500Y-15517623D01*
X26564500Y-15520983D01*
X26564501Y-16109102D01*
X26544817Y-16176141D01*
X26492013Y-16221896D01*
X26422854Y-16231840D01*
X26359298Y-16202815D01*
X26352820Y-16196783D01*
X26351819Y-16195782D01*
X26318334Y-16134459D01*
X26315500Y-16108101D01*
X26315499Y-15520985D01*
X26315499Y-15517624D01*
X26308851Y-15456420D01*
X26258526Y-15322176D01*
X26172546Y-15207454D01*
X26165481Y-15202159D01*
X26064891Y-15126770D01*
X26064889Y-15126769D01*
X26057824Y-15121474D01*
X25923580Y-15071149D01*
X25862377Y-15064500D01*
X25440063Y-15064500D01*
X25017624Y-15064501D01*
X24956420Y-15071149D01*
X24822176Y-15121474D01*
X24815111Y-15126769D01*
X24815109Y-15126770D01*
X24714519Y-15202159D01*
X24707454Y-15207454D01*
X24621474Y-15322176D01*
X24571149Y-15456420D01*
X24564500Y-15517623D01*
X24564501Y-16112376D01*
X24571149Y-16173580D01*
X24621474Y-16307824D01*
X24707454Y-16422546D01*
X24714519Y-16427841D01*
X24815109Y-16503230D01*
X24815111Y-16503231D01*
X24822176Y-16508526D01*
X24956420Y-16558851D01*
X25017623Y-16565500D01*
X25057033Y-16565500D01*
X25608100Y-16565499D01*
X25675139Y-16585183D01*
X25695781Y-16601818D01*
X27446783Y-18352821D01*
X27480267Y-18414142D01*
X27475283Y-18483834D01*
X27433411Y-18539767D01*
X27367947Y-18564184D01*
X27359101Y-18564500D01*
X27024739Y-18564501D01*
X27017624Y-18564501D01*
X26956420Y-18571149D01*
X26822176Y-18621474D01*
X26815111Y-18626769D01*
X26815109Y-18626770D01*
X26791494Y-18644469D01*
X26707454Y-18707454D01*
X26702159Y-18714519D01*
X26702156Y-18714522D01*
X26689563Y-18731325D01*
X26633606Y-18773166D01*
X26563912Y-18778112D01*
X26502607Y-18744593D01*
X26484893Y-18722211D01*
X26410560Y-18602090D01*
X26401675Y-18590880D01*
X26288096Y-18477499D01*
X26276865Y-18468630D01*
X26140259Y-18384425D01*
X26127282Y-18378373D01*
X25974554Y-18327715D01*
X25961387Y-18324892D01*
X25867981Y-18315322D01*
X25861675Y-18315000D01*
X25707830Y-18315000D01*
X25692831Y-18319404D01*
X25691644Y-18320774D01*
X25690000Y-18328332D01*
X25690000Y-20297169D01*
X25694404Y-20312168D01*
X25695774Y-20313355D01*
X25703332Y-20314999D01*
X25861636Y-20314999D01*
X25868015Y-20314669D01*
X25962671Y-20304849D01*
X25975849Y-20302003D01*
X26128481Y-20251080D01*
X26141443Y-20245009D01*
X26277907Y-20160562D01*
X26289120Y-20151675D01*
X26402501Y-20038096D01*
X26411368Y-20026868D01*
X26484712Y-19907882D01*
X26536646Y-19861143D01*
X26605606Y-19849901D01*
X26669696Y-19877726D01*
X26689495Y-19898584D01*
X26702157Y-19915479D01*
X26702159Y-19915481D01*
X26707454Y-19922546D01*
X26714519Y-19927841D01*
X26815109Y-20003230D01*
X26815111Y-20003231D01*
X26822176Y-20008526D01*
X26956420Y-20058851D01*
X27017623Y-20065500D01*
X27439937Y-20065500D01*
X27862376Y-20065499D01*
X27923580Y-20058851D01*
X27923843Y-20061276D01*
X27981601Y-20064297D01*
X28038326Y-20105090D01*
X28063992Y-20170074D01*
X28064500Y-20181287D01*
X28064500Y-23095508D01*
X28044815Y-23162547D01*
X28005474Y-23201122D01*
X27975022Y-23219856D01*
X27970070Y-23224706D01*
X27970068Y-23224707D01*
X27859680Y-23332807D01*
X27859677Y-23332811D01*
X27854724Y-23337661D01*
X27763515Y-23479190D01*
X27761145Y-23485702D01*
X27721541Y-23594512D01*
X27705927Y-23637409D01*
X27684825Y-23804455D01*
X27701255Y-23972025D01*
X27754402Y-24131791D01*
X27757995Y-24137724D01*
X27757996Y-24137726D01*
X27838033Y-24269883D01*
X27841624Y-24275812D01*
X27846437Y-24280796D01*
X27935404Y-24372923D01*
X27958586Y-24396929D01*
X28008401Y-24429527D01*
X28053715Y-24482704D01*
X28064500Y-24533283D01*
X28064500Y-25633101D01*
X28044815Y-25700140D01*
X28028181Y-25720782D01*
X27670782Y-26078181D01*
X27609459Y-26111666D01*
X27583101Y-26114500D01*
X26093285Y-26114500D01*
X26069349Y-26111953D01*
X26067954Y-26111887D01*
X26057934Y-26109730D01*
X26047759Y-26110934D01*
X26047754Y-26110934D01*
X26024891Y-26113640D01*
X26019014Y-26113987D01*
X26019022Y-26114079D01*
X26013927Y-26114500D01*
X26008807Y-26114500D01*
X26003760Y-26115340D01*
X26003749Y-26115341D01*
X25989981Y-26117633D01*
X25984198Y-26118456D01*
X25943970Y-26123217D01*
X25943963Y-26123219D01*
X25933791Y-26124423D01*
X25925622Y-26128346D01*
X25916687Y-26129833D01*
X25907672Y-26134697D01*
X25907667Y-26134699D01*
X25872033Y-26153926D01*
X25866835Y-26156575D01*
X25821101Y-26178537D01*
X25816869Y-26182094D01*
X25814959Y-26184004D01*
X25813057Y-26185749D01*
X25812992Y-26185784D01*
X25812876Y-26185658D01*
X25812326Y-26186143D01*
X25806671Y-26189194D01*
X25799711Y-26196723D01*
X25799710Y-26196724D01*
X25770447Y-26228381D01*
X25767072Y-26231891D01*
X23337161Y-28661802D01*
X23318432Y-28676929D01*
X23317398Y-28677870D01*
X23308790Y-28683428D01*
X23302448Y-28691473D01*
X23288193Y-28709555D01*
X23284280Y-28713958D01*
X23284350Y-28714017D01*
X23281043Y-28717920D01*
X23277425Y-28721538D01*
X23274451Y-28725700D01*
X23266321Y-28737077D01*
X23262830Y-28741728D01*
X23231397Y-28781600D01*
X23228395Y-28790149D01*
X23223128Y-28797519D01*
X23212990Y-28831420D01*
X23208594Y-28846118D01*
X23206788Y-28851676D01*
X23195837Y-28882862D01*
X23189977Y-28899548D01*
X23189500Y-28905055D01*
X23189500Y-28907739D01*
X23189387Y-28910341D01*
X23189365Y-28910415D01*
X23189196Y-28910408D01*
X23189150Y-28911133D01*
X23187310Y-28917287D01*
X23187712Y-28927529D01*
X23186428Y-28937696D01*
X23182678Y-28937222D01*
X23170337Y-28986344D01*
X23137129Y-29023214D01*
X23042850Y-29092850D01*
X23037343Y-29100306D01*
X22987746Y-29167455D01*
X22962366Y-29201816D01*
X22959297Y-29210555D01*
X22959296Y-29210557D01*
X22942551Y-29258242D01*
X22917481Y-29329631D01*
X22914500Y-29361166D01*
X22914500Y-30368834D01*
X21690500Y-30368834D01*
X21690500Y-23565000D01*
X23084341Y-23565000D01*
X23084813Y-23570395D01*
X23099794Y-23741621D01*
X23104937Y-23800408D01*
X23106336Y-23805631D01*
X23106337Y-23805634D01*
X23108847Y-23815000D01*
X23166097Y-24028663D01*
X23168384Y-24033567D01*
X23168386Y-24033573D01*
X23233531Y-24173274D01*
X23265965Y-24242829D01*
X23269072Y-24247266D01*
X23269073Y-24247268D01*
X23398399Y-24431966D01*
X23398403Y-24431970D01*
X23401505Y-24436401D01*
X23568599Y-24603495D01*
X23762170Y-24739035D01*
X23976337Y-24838903D01*
X24060137Y-24861357D01*
X24199366Y-24898663D01*
X24199369Y-24898664D01*
X24204592Y-24900063D01*
X24209979Y-24900534D01*
X24209983Y-24900535D01*
X24434605Y-24920187D01*
X24440000Y-24920659D01*
X24445395Y-24920187D01*
X24670017Y-24900535D01*
X24670021Y-24900534D01*
X24675408Y-24900063D01*
X24680631Y-24898664D01*
X24680634Y-24898663D01*
X24819863Y-24861357D01*
X24903663Y-24838903D01*
X25117830Y-24739035D01*
X25311401Y-24603495D01*
X25478495Y-24436401D01*
X25481597Y-24431970D01*
X25481601Y-24431966D01*
X25610927Y-24247268D01*
X25610928Y-24247266D01*
X25614035Y-24242829D01*
X25646469Y-24173274D01*
X25711614Y-24033573D01*
X25711616Y-24033567D01*
X25713903Y-24028663D01*
X25771153Y-23815000D01*
X25773663Y-23805634D01*
X25773664Y-23805631D01*
X25775063Y-23800408D01*
X25780207Y-23741621D01*
X25795187Y-23570395D01*
X25795659Y-23565000D01*
X25788721Y-23485702D01*
X25775535Y-23334983D01*
X25775534Y-23334979D01*
X25775063Y-23329592D01*
X25763430Y-23286174D01*
X25715305Y-23106570D01*
X25713903Y-23101337D01*
X25711616Y-23096433D01*
X25711614Y-23096427D01*
X25616325Y-22892082D01*
X25614035Y-22887171D01*
X25601594Y-22869403D01*
X25481601Y-22698034D01*
X25481597Y-22698030D01*
X25478495Y-22693599D01*
X25311401Y-22526505D01*
X25117830Y-22390965D01*
X24903663Y-22291097D01*
X24768998Y-22255014D01*
X24680634Y-22231337D01*
X24680631Y-22231336D01*
X24675408Y-22229937D01*
X24670021Y-22229466D01*
X24670017Y-22229465D01*
X24445395Y-22209813D01*
X24440000Y-22209341D01*
X24434605Y-22209813D01*
X24209983Y-22229465D01*
X24209979Y-22229466D01*
X24204592Y-22229937D01*
X24199369Y-22231336D01*
X24199366Y-22231337D01*
X24111002Y-22255014D01*
X23976337Y-22291097D01*
X23971433Y-22293384D01*
X23971427Y-22293386D01*
X23834084Y-22357431D01*
X23762171Y-22390965D01*
X23757734Y-22394072D01*
X23757732Y-22394073D01*
X23573034Y-22523399D01*
X23573033Y-22523400D01*
X23568599Y-22526505D01*
X23401505Y-22693599D01*
X23398403Y-22698030D01*
X23398399Y-22698034D01*
X23278406Y-22869403D01*
X23265965Y-22887171D01*
X23263675Y-22892082D01*
X23168386Y-23096427D01*
X23168384Y-23096433D01*
X23166097Y-23101337D01*
X23164695Y-23106570D01*
X23116571Y-23286174D01*
X23104937Y-23329592D01*
X23104466Y-23334979D01*
X23104465Y-23334983D01*
X23091279Y-23485702D01*
X23084341Y-23565000D01*
X21690500Y-23565000D01*
X21690500Y-19611636D01*
X24315001Y-19611636D01*
X24315331Y-19618015D01*
X24325151Y-19712671D01*
X24327997Y-19725849D01*
X24378920Y-19878481D01*
X24384991Y-19891443D01*
X24469438Y-20027907D01*
X24478325Y-20039120D01*
X24591904Y-20152501D01*
X24603135Y-20161370D01*
X24739741Y-20245575D01*
X24752718Y-20251627D01*
X24905446Y-20302285D01*
X24918613Y-20305108D01*
X25012019Y-20314678D01*
X25018325Y-20315000D01*
X25172170Y-20315000D01*
X25187169Y-20310596D01*
X25188356Y-20309226D01*
X25190000Y-20301668D01*
X25190000Y-19582830D01*
X25185596Y-19567831D01*
X25184226Y-19566644D01*
X25176668Y-19565000D01*
X24332831Y-19565000D01*
X24317832Y-19569404D01*
X24316645Y-19570774D01*
X24315001Y-19578332D01*
X24315001Y-19611636D01*
X21690500Y-19611636D01*
X21690500Y-19047170D01*
X24315000Y-19047170D01*
X24319404Y-19062169D01*
X24320774Y-19063356D01*
X24328332Y-19065000D01*
X25172170Y-19065000D01*
X25187169Y-19060596D01*
X25188356Y-19059226D01*
X25190000Y-19051668D01*
X25190000Y-18332831D01*
X25185596Y-18317832D01*
X25184226Y-18316645D01*
X25176668Y-18315001D01*
X25018364Y-18315001D01*
X25011985Y-18315331D01*
X24917329Y-18325151D01*
X24904151Y-18327997D01*
X24751519Y-18378920D01*
X24738557Y-18384991D01*
X24602093Y-18469438D01*
X24590880Y-18478325D01*
X24477499Y-18591904D01*
X24468630Y-18603135D01*
X24384425Y-18739741D01*
X24378373Y-18752718D01*
X24327715Y-18905446D01*
X24324892Y-18918613D01*
X24315322Y-19012019D01*
X24315000Y-19018325D01*
X24315000Y-19047170D01*
X21690500Y-19047170D01*
X21690500Y-14939500D01*
X21710185Y-14872461D01*
X21762989Y-14826706D01*
X21814500Y-14815500D01*
X35065500Y-14815500D01*
X35132539Y-14835185D01*
G37*
%TD.AperFunction*%
%TA.AperFunction,Conductor*%
G36*
X32403230Y-19850934D02*
G01*
X32436681Y-19912275D01*
X32439500Y-19938566D01*
X32439500Y-21806324D01*
X32419815Y-21873363D01*
X32403181Y-21894005D01*
X30277181Y-24020005D01*
X30215858Y-24053490D01*
X30146166Y-24048506D01*
X30090233Y-24006634D01*
X30065816Y-23941170D01*
X30065500Y-23932324D01*
X30065500Y-23785379D01*
X30085185Y-23718340D01*
X30126005Y-23678869D01*
X30140667Y-23670129D01*
X30140670Y-23670127D01*
X30146623Y-23666578D01*
X30151645Y-23661796D01*
X30263535Y-23555245D01*
X30263537Y-23555243D01*
X30268554Y-23550465D01*
X30319781Y-23473363D01*
X30357894Y-23415999D01*
X30357896Y-23415995D01*
X30361731Y-23410223D01*
X30364191Y-23403747D01*
X30364193Y-23403743D01*
X30419060Y-23259301D01*
X30421521Y-23252823D01*
X30444955Y-23086088D01*
X30445249Y-23065000D01*
X30444066Y-23054455D01*
X30429289Y-22922705D01*
X30441378Y-22853890D01*
X30464832Y-22821206D01*
X30617366Y-22668671D01*
X30636063Y-22653572D01*
X30637117Y-22652613D01*
X30645730Y-22647052D01*
X30666324Y-22620929D01*
X30670244Y-22616518D01*
X30670174Y-22616459D01*
X30673479Y-22612559D01*
X30677096Y-22608942D01*
X30680064Y-22604789D01*
X30680073Y-22604778D01*
X30688217Y-22593380D01*
X30691727Y-22588705D01*
X30716778Y-22556929D01*
X30716779Y-22556927D01*
X30723123Y-22548880D01*
X30726125Y-22540332D01*
X30731392Y-22532961D01*
X30745930Y-22484349D01*
X30747735Y-22478795D01*
X30761958Y-22438294D01*
X30761959Y-22438292D01*
X30764543Y-22430932D01*
X30765020Y-22425425D01*
X30765020Y-22422742D01*
X30765133Y-22420143D01*
X30765156Y-22420065D01*
X30765324Y-22420072D01*
X30765369Y-22419351D01*
X30767211Y-22413193D01*
X30765116Y-22359874D01*
X30765020Y-22355006D01*
X30765020Y-20166012D01*
X30784705Y-20098973D01*
X30837509Y-20053218D01*
X30906667Y-20043274D01*
X30932545Y-20049902D01*
X30949138Y-20056122D01*
X30949144Y-20056123D01*
X30956420Y-20058851D01*
X31017623Y-20065500D01*
X31439937Y-20065500D01*
X31862376Y-20065499D01*
X31923580Y-20058851D01*
X32057824Y-20008526D01*
X32064889Y-20003231D01*
X32064891Y-20003230D01*
X32165481Y-19927841D01*
X32172546Y-19922546D01*
X32216275Y-19864200D01*
X32272231Y-19822360D01*
X32341926Y-19817414D01*
X32403230Y-19850934D01*
G37*
%TD.AperFunction*%
%TD*%
M02*
