%TF.GenerationSoftware,KiCad,Pcbnew,(6.0.4)*%
%TF.CreationDate,2022-07-21T21:10:16-04:00*%
%TF.ProjectId,XpandShieldMK3_2,5870616e-6453-4686-9965-6c644d4b335f,rev?*%
%TF.SameCoordinates,Original*%
%TF.FileFunction,Copper,L1,Top*%
%TF.FilePolarity,Positive*%
%FSLAX46Y46*%
G04 Gerber Fmt 4.6, Leading zero omitted, Abs format (unit mm)*
G04 Created by KiCad (PCBNEW (6.0.4)) date 2022-07-21 21:10:16*
%MOMM*%
%LPD*%
G01*
G04 APERTURE LIST*
G04 Aperture macros list*
%AMRoundRect*
0 Rectangle with rounded corners*
0 $1 Rounding radius*
0 $2 $3 $4 $5 $6 $7 $8 $9 X,Y pos of 4 corners*
0 Add a 4 corners polygon primitive as box body*
4,1,4,$2,$3,$4,$5,$6,$7,$8,$9,$2,$3,0*
0 Add four circle primitives for the rounded corners*
1,1,$1+$1,$2,$3*
1,1,$1+$1,$4,$5*
1,1,$1+$1,$6,$7*
1,1,$1+$1,$8,$9*
0 Add four rect primitives between the rounded corners*
20,1,$1+$1,$2,$3,$4,$5,0*
20,1,$1+$1,$4,$5,$6,$7,0*
20,1,$1+$1,$6,$7,$8,$9,0*
20,1,$1+$1,$8,$9,$2,$3,0*%
G04 Aperture macros list end*
%TA.AperFunction,SMDPad,CuDef*%
%ADD10R,0.500000X0.800000*%
%TD*%
%TA.AperFunction,SMDPad,CuDef*%
%ADD11R,0.400000X0.800000*%
%TD*%
%TA.AperFunction,ComponentPad*%
%ADD12RoundRect,0.200000X-0.200000X-0.450000X0.200000X-0.450000X0.200000X0.450000X-0.200000X0.450000X0*%
%TD*%
%TA.AperFunction,ComponentPad*%
%ADD13O,0.800000X1.300000*%
%TD*%
%TA.AperFunction,ComponentPad*%
%ADD14RoundRect,0.250000X-0.375000X-0.250000X0.375000X-0.250000X0.375000X0.250000X-0.375000X0.250000X0*%
%TD*%
%TA.AperFunction,ViaPad*%
%ADD15C,1.000000*%
%TD*%
%TA.AperFunction,Conductor*%
%ADD16C,0.500000*%
%TD*%
%TA.AperFunction,Conductor*%
%ADD17C,0.250000*%
%TD*%
%TA.AperFunction,Conductor*%
%ADD18C,0.375000*%
%TD*%
G04 APERTURE END LIST*
D10*
%TO.P,REF\u002A\u002A,1*%
%TO.N,VLED0*%
X33640000Y-21665000D03*
D11*
%TO.P,REF\u002A\u002A,2*%
X32840000Y-21665000D03*
%TO.P,REF\u002A\u002A,3*%
%TO.N,GND*%
X32040000Y-21665000D03*
D10*
%TO.P,REF\u002A\u002A,4*%
X31240000Y-21665000D03*
%TO.P,REF\u002A\u002A,5*%
%TO.N,PA07*%
X31240000Y-23465000D03*
D11*
%TO.P,REF\u002A\u002A,6*%
%TO.N,PA06*%
X32040000Y-23465000D03*
%TO.P,REF\u002A\u002A,7*%
%TO.N,P3v3*%
X32840000Y-23465000D03*
D10*
%TO.P,REF\u002A\u002A,8*%
X33640000Y-23465000D03*
%TD*%
D12*
%TO.P,REF\u002A\u002A,1*%
%TO.N,PA06*%
X23565000Y-29865000D03*
D13*
%TO.P,REF\u002A\u002A,2*%
%TO.N,PA07*%
X24815000Y-29865000D03*
%TO.P,REF\u002A\u002A,3*%
%TO.N,P3v3*%
X26065000Y-29865000D03*
%TO.P,REF\u002A\u002A,4*%
%TO.N,GND*%
X27315000Y-29865000D03*
%TD*%
D14*
%TO.P,OPT_INT,1*%
%TO.N,PA07*%
X29440000Y-15815000D03*
%TO.P,OPT_INT,2*%
%TO.N,P3v3*%
X31440000Y-15815000D03*
%TO.P,OPT_INT,3*%
%TO.N,GND*%
X29440000Y-19315000D03*
%TO.P,OPT_INT,4*%
%TO.N,VLED0*%
X31440000Y-19315000D03*
%TD*%
%TO.P,OPT_INT,1*%
%TO.N,PA06*%
X25440000Y-15815000D03*
%TO.P,OPT_INT,2*%
%TO.N,P3v3*%
X27440000Y-15815000D03*
%TO.P,OPT_INT,3*%
%TO.N,GND*%
X25440000Y-19315000D03*
%TO.P,OPT_INT,4*%
%TO.N,VLED0*%
X27440000Y-19315000D03*
%TD*%
D15*
%TO.N,PA06*%
X28440000Y-23815000D03*
%TO.N,PA07*%
X29690000Y-23065000D03*
%TD*%
D16*
%TO.N,GND*%
X32040000Y-21665000D02*
X31240000Y-21665000D01*
X32440000Y-18315000D02*
X29440000Y-18315000D01*
X32240978Y-22565000D02*
X32040000Y-22364022D01*
X29940000Y-25815000D02*
X33190000Y-25815000D01*
X32040000Y-22364022D02*
X32040000Y-21665000D01*
X25440000Y-18315000D02*
X29440000Y-18315000D01*
X34690000Y-24315000D02*
X34690000Y-23065000D01*
X31240000Y-22365000D02*
X31440000Y-22565000D01*
X33190000Y-25815000D02*
X34690000Y-24315000D01*
D17*
X29440000Y-19315000D02*
X29190000Y-19315000D01*
D16*
X34690000Y-20565000D02*
X32440000Y-18315000D01*
X25440000Y-19315000D02*
X25440000Y-18315000D01*
X34190000Y-22565000D02*
X32240978Y-22565000D01*
X25440000Y-19315000D02*
X27790000Y-21665000D01*
X27315000Y-29865000D02*
X27315000Y-28440000D01*
X34690000Y-23065000D02*
X34190000Y-22565000D01*
X27315000Y-28440000D02*
X29940000Y-25815000D01*
X29440000Y-19315000D02*
X29440000Y-18315000D01*
X31440000Y-22565000D02*
X32240978Y-22565000D01*
X31240000Y-21665000D02*
X31240000Y-22365000D01*
X27790000Y-21665000D02*
X31240000Y-21665000D01*
X34690000Y-23065000D02*
X34690000Y-20565000D01*
%TO.N,P3v3*%
X31440000Y-16315000D02*
X31440000Y-15815000D01*
X32840000Y-24615000D02*
X33640000Y-23815000D01*
X26065000Y-27940000D02*
X26065000Y-29865000D01*
X27440000Y-15815000D02*
X27440000Y-16315000D01*
X33640000Y-23815000D02*
X33640000Y-23465000D01*
X30940000Y-16815000D02*
X31440000Y-16315000D01*
X32840000Y-24615000D02*
X32440000Y-25015000D01*
X27440000Y-16315000D02*
X27940000Y-16815000D01*
X27190000Y-26815000D02*
X26065000Y-27940000D01*
X32440000Y-25015000D02*
X28990000Y-25015000D01*
X27940000Y-16815000D02*
X30940000Y-16815000D01*
X32840000Y-24615000D02*
X32840000Y-23465000D01*
X28990000Y-25015000D02*
X27190000Y-26815000D01*
D17*
%TO.N,PA06*%
X32040000Y-23465000D02*
X32040000Y-24115000D01*
X31840000Y-24315000D02*
X28940000Y-24315000D01*
X32040000Y-24115000D02*
X31840000Y-24315000D01*
X28940000Y-24315000D02*
X28440000Y-23815000D01*
%TO.N,PA07*%
X31240000Y-23465000D02*
X30090000Y-23465000D01*
X30090000Y-23465000D02*
X29690000Y-23065000D01*
D18*
%TO.N,VLED0*%
X32840000Y-21015000D02*
X32290000Y-20465000D01*
X32290000Y-20465000D02*
X28590000Y-20465000D01*
X32440000Y-19315000D02*
X33640000Y-20515000D01*
X32840000Y-21665000D02*
X32840000Y-21015000D01*
X31440000Y-19315000D02*
X32440000Y-19315000D01*
X33640000Y-20515000D02*
X33640000Y-21665000D01*
X27440000Y-19315000D02*
X28590000Y-20465000D01*
%TD*%
%TA.AperFunction,Conductor*%
%TO.N,GND*%
G36*
X35132539Y-14835185D02*
G01*
X35178294Y-14887989D01*
X35189500Y-14939500D01*
X35189500Y-31190500D01*
X35169815Y-31257539D01*
X35117011Y-31303294D01*
X35065500Y-31314500D01*
X21814500Y-31314500D01*
X21747461Y-31294815D01*
X21701706Y-31242011D01*
X21690500Y-31190500D01*
X21690500Y-30368834D01*
X22914500Y-30368834D01*
X22917481Y-30400369D01*
X22938574Y-30460434D01*
X22952607Y-30500393D01*
X22962366Y-30528184D01*
X22967871Y-30535637D01*
X22967872Y-30535639D01*
X22992374Y-30568811D01*
X23042850Y-30637150D01*
X23050306Y-30642657D01*
X23144361Y-30712128D01*
X23144363Y-30712129D01*
X23151816Y-30717634D01*
X23160555Y-30720703D01*
X23160557Y-30720704D01*
X23202008Y-30735260D01*
X23279631Y-30762519D01*
X23287150Y-30763230D01*
X23287151Y-30763230D01*
X23308252Y-30765225D01*
X23308262Y-30765225D01*
X23311166Y-30765500D01*
X23818834Y-30765500D01*
X23821738Y-30765225D01*
X23821748Y-30765225D01*
X23842849Y-30763230D01*
X23842850Y-30763230D01*
X23850369Y-30762519D01*
X23927992Y-30735260D01*
X23969443Y-30720704D01*
X23969445Y-30720703D01*
X23978184Y-30717634D01*
X23985637Y-30712129D01*
X23985639Y-30712128D01*
X24079694Y-30642657D01*
X24087150Y-30637150D01*
X24139723Y-30565972D01*
X24195385Y-30523744D01*
X24265044Y-30518312D01*
X24329857Y-30554762D01*
X24332449Y-30557522D01*
X24337037Y-30563837D01*
X24343050Y-30568811D01*
X24430667Y-30641294D01*
X24463674Y-30668600D01*
X24612387Y-30738579D01*
X24620044Y-30740040D01*
X24620045Y-30740040D01*
X24693109Y-30753978D01*
X24773830Y-30769376D01*
X24937860Y-30759056D01*
X24945278Y-30756646D01*
X24945282Y-30756645D01*
X25047352Y-30723480D01*
X25094171Y-30708268D01*
X25151449Y-30671918D01*
X25226353Y-30624383D01*
X25226357Y-30624380D01*
X25232940Y-30620202D01*
X25345448Y-30500393D01*
X25345599Y-30500535D01*
X25397603Y-30460434D01*
X25467216Y-30454455D01*
X25529011Y-30487060D01*
X25542909Y-30503100D01*
X25587037Y-30563837D01*
X25593050Y-30568811D01*
X25680667Y-30641294D01*
X25713674Y-30668600D01*
X25862387Y-30738579D01*
X25870044Y-30740040D01*
X25870045Y-30740040D01*
X25943109Y-30753978D01*
X26023830Y-30769376D01*
X26187860Y-30759056D01*
X26195278Y-30756646D01*
X26195282Y-30756645D01*
X26297352Y-30723480D01*
X26344171Y-30708268D01*
X26442751Y-30645707D01*
X26509901Y-30626406D01*
X26576827Y-30646473D01*
X26601343Y-30667432D01*
X26705119Y-30782686D01*
X26714720Y-30791331D01*
X26857266Y-30894898D01*
X26868455Y-30901358D01*
X27029421Y-30973024D01*
X27041706Y-30977016D01*
X27047560Y-30978260D01*
X27061400Y-30977204D01*
X27065000Y-30967409D01*
X27065000Y-30964137D01*
X27565000Y-30964137D01*
X27568910Y-30977454D01*
X27579241Y-30978940D01*
X27588294Y-30977016D01*
X27600579Y-30973024D01*
X27761544Y-30901358D01*
X27772733Y-30894898D01*
X27915280Y-30791331D01*
X27924881Y-30782686D01*
X28042779Y-30651748D01*
X28050374Y-30641294D01*
X28138469Y-30488708D01*
X28143727Y-30476900D01*
X28198175Y-30309327D01*
X28200861Y-30296693D01*
X28214661Y-30165386D01*
X28215000Y-30158922D01*
X28215000Y-30132830D01*
X28210596Y-30117831D01*
X28209226Y-30116644D01*
X28201668Y-30115000D01*
X27582830Y-30115000D01*
X27567831Y-30119404D01*
X27566644Y-30120774D01*
X27565000Y-30128332D01*
X27565000Y-30964137D01*
X27065000Y-30964137D01*
X27065000Y-29597170D01*
X27565000Y-29597170D01*
X27569404Y-29612169D01*
X27570774Y-29613356D01*
X27578332Y-29615000D01*
X28197170Y-29615000D01*
X28212169Y-29610596D01*
X28213356Y-29609226D01*
X28215000Y-29601668D01*
X28215000Y-29571078D01*
X28214661Y-29564614D01*
X28200861Y-29433307D01*
X28198175Y-29420673D01*
X28143727Y-29253100D01*
X28138469Y-29241292D01*
X28050374Y-29088706D01*
X28042779Y-29078252D01*
X27924881Y-28947314D01*
X27915280Y-28938669D01*
X27772734Y-28835102D01*
X27761545Y-28828642D01*
X27600579Y-28756976D01*
X27588294Y-28752984D01*
X27582440Y-28751740D01*
X27568600Y-28752796D01*
X27565000Y-28762591D01*
X27565000Y-29597170D01*
X27065000Y-29597170D01*
X27065000Y-28765863D01*
X27061090Y-28752546D01*
X27050759Y-28751060D01*
X27041706Y-28752984D01*
X27029421Y-28756976D01*
X26868456Y-28828642D01*
X26857262Y-28835105D01*
X26762385Y-28904037D01*
X26696579Y-28927517D01*
X26628525Y-28911691D01*
X26579830Y-28861586D01*
X26565500Y-28803719D01*
X26565500Y-28565000D01*
X31184723Y-28565000D01*
X31203793Y-28782977D01*
X31205195Y-28788209D01*
X31254805Y-28973355D01*
X31260425Y-28994330D01*
X31352898Y-29192638D01*
X31356005Y-29197075D01*
X31356006Y-29197077D01*
X31475296Y-29367442D01*
X31475300Y-29367446D01*
X31478402Y-29371877D01*
X31633123Y-29526598D01*
X31812361Y-29652102D01*
X32010670Y-29744575D01*
X32015893Y-29745974D01*
X32015897Y-29745976D01*
X32182901Y-29790724D01*
X32222023Y-29801207D01*
X32440000Y-29820277D01*
X32657977Y-29801207D01*
X32697099Y-29790724D01*
X32864103Y-29745976D01*
X32864107Y-29745974D01*
X32869330Y-29744575D01*
X33067639Y-29652102D01*
X33246877Y-29526598D01*
X33401598Y-29371877D01*
X33404700Y-29367446D01*
X33404704Y-29367442D01*
X33523994Y-29197077D01*
X33523995Y-29197075D01*
X33527102Y-29192638D01*
X33619575Y-28994330D01*
X33625196Y-28973355D01*
X33674805Y-28788209D01*
X33676207Y-28782977D01*
X33695277Y-28565000D01*
X33676207Y-28347023D01*
X33645319Y-28231746D01*
X33620976Y-28140897D01*
X33620974Y-28140893D01*
X33619575Y-28135670D01*
X33527102Y-27937362D01*
X33504999Y-27905795D01*
X33404704Y-27762558D01*
X33404700Y-27762554D01*
X33401598Y-27758123D01*
X33246877Y-27603402D01*
X33067639Y-27477898D01*
X32869330Y-27385425D01*
X32864107Y-27384026D01*
X32864103Y-27384024D01*
X32663209Y-27330195D01*
X32663210Y-27330195D01*
X32657977Y-27328793D01*
X32440000Y-27309723D01*
X32222023Y-27328793D01*
X32216790Y-27330195D01*
X32216791Y-27330195D01*
X32015897Y-27384024D01*
X32015893Y-27384026D01*
X32010670Y-27385425D01*
X31812362Y-27477898D01*
X31807925Y-27481005D01*
X31807923Y-27481006D01*
X31637558Y-27600296D01*
X31637557Y-27600297D01*
X31633123Y-27603402D01*
X31478402Y-27758123D01*
X31475300Y-27762554D01*
X31475296Y-27762558D01*
X31375001Y-27905795D01*
X31352898Y-27937362D01*
X31260425Y-28135670D01*
X31259026Y-28140893D01*
X31259024Y-28140897D01*
X31234681Y-28231746D01*
X31203793Y-28347023D01*
X31185639Y-28554535D01*
X31184723Y-28565000D01*
X26565500Y-28565000D01*
X26565500Y-28198676D01*
X26585185Y-28131637D01*
X26601819Y-28110995D01*
X29160995Y-25551819D01*
X29222318Y-25518334D01*
X29248676Y-25515500D01*
X32370039Y-25515500D01*
X32381985Y-25516835D01*
X32382023Y-25516361D01*
X32390832Y-25517070D01*
X32399447Y-25519019D01*
X32408264Y-25518472D01*
X32408265Y-25518472D01*
X32452328Y-25515738D01*
X32460007Y-25515500D01*
X32475940Y-25515500D01*
X32480308Y-25514874D01*
X32480314Y-25514874D01*
X32486130Y-25514041D01*
X32496029Y-25513027D01*
X32528452Y-25511015D01*
X32533722Y-25510688D01*
X32542538Y-25510141D01*
X32550849Y-25507140D01*
X32553681Y-25506554D01*
X32570384Y-25502390D01*
X32573168Y-25501576D01*
X32581918Y-25500323D01*
X32624348Y-25481031D01*
X32633554Y-25477284D01*
X32669075Y-25464461D01*
X32669077Y-25464460D01*
X32677387Y-25461460D01*
X32684525Y-25456245D01*
X32687085Y-25454884D01*
X32701955Y-25446195D01*
X32704385Y-25444641D01*
X32712428Y-25440984D01*
X32747743Y-25410554D01*
X32755531Y-25404371D01*
X32766336Y-25396478D01*
X32777136Y-25385678D01*
X32783875Y-25379421D01*
X32814345Y-25353167D01*
X32814348Y-25353164D01*
X32821037Y-25347400D01*
X32825843Y-25339985D01*
X32831185Y-25333861D01*
X32840651Y-25322163D01*
X33144439Y-25018375D01*
X33153828Y-25010872D01*
X33153520Y-25010510D01*
X33160246Y-25004785D01*
X33167720Y-25000070D01*
X33202793Y-24960357D01*
X33208055Y-24954759D01*
X33219320Y-24943494D01*
X33944438Y-24218375D01*
X33953830Y-24210871D01*
X33953522Y-24210509D01*
X33960250Y-24204783D01*
X33967720Y-24200070D01*
X34002801Y-24160348D01*
X34008063Y-24154750D01*
X34019320Y-24143493D01*
X34021961Y-24139969D01*
X34021967Y-24139962D01*
X34025489Y-24135262D01*
X34031773Y-24127543D01*
X34056776Y-24099233D01*
X34056777Y-24099231D01*
X34062623Y-24092612D01*
X34066377Y-24084617D01*
X34067970Y-24082191D01*
X34076837Y-24067434D01*
X34078229Y-24064892D01*
X34083526Y-24057824D01*
X34099884Y-24014190D01*
X34103748Y-24005022D01*
X34114040Y-23983100D01*
X34117473Y-23977019D01*
X34119183Y-23972892D01*
X34125966Y-23962740D01*
X34133647Y-23924128D01*
X34133852Y-23923580D01*
X34133910Y-23922806D01*
X34140500Y-23889674D01*
X34140500Y-23838715D01*
X34140841Y-23829526D01*
X34142616Y-23805634D01*
X34144476Y-23780608D01*
X34142632Y-23771968D01*
X34142078Y-23763846D01*
X34140500Y-23748894D01*
X34140500Y-23040326D01*
X34125966Y-22967260D01*
X34070601Y-22884399D01*
X33987740Y-22829034D01*
X33953687Y-22822260D01*
X33920653Y-22815689D01*
X33920650Y-22815689D01*
X33914674Y-22814500D01*
X33365326Y-22814500D01*
X33359350Y-22815689D01*
X33359347Y-22815689D01*
X33326313Y-22822260D01*
X33292260Y-22829034D01*
X33282104Y-22835820D01*
X33270822Y-22840493D01*
X33270171Y-22838921D01*
X33217217Y-22855504D01*
X33159928Y-22838682D01*
X33159178Y-22840493D01*
X33147896Y-22835820D01*
X33137740Y-22829034D01*
X33103687Y-22822260D01*
X33070653Y-22815689D01*
X33070650Y-22815689D01*
X33064674Y-22814500D01*
X32615326Y-22814500D01*
X32609350Y-22815689D01*
X32609347Y-22815689D01*
X32576313Y-22822260D01*
X32542260Y-22829034D01*
X32532102Y-22835821D01*
X32532100Y-22835822D01*
X32508890Y-22851330D01*
X32442213Y-22872208D01*
X32371110Y-22851330D01*
X32347900Y-22835822D01*
X32347898Y-22835821D01*
X32337740Y-22829034D01*
X32303687Y-22822260D01*
X32270653Y-22815689D01*
X32270650Y-22815689D01*
X32264674Y-22814500D01*
X31815326Y-22814500D01*
X31809350Y-22815689D01*
X31809347Y-22815689D01*
X31776313Y-22822260D01*
X31742260Y-22829034D01*
X31732104Y-22835820D01*
X31720822Y-22840493D01*
X31720171Y-22838921D01*
X31667217Y-22855504D01*
X31609928Y-22838682D01*
X31609178Y-22840493D01*
X31597896Y-22835820D01*
X31587740Y-22829034D01*
X31553687Y-22822260D01*
X31520653Y-22815689D01*
X31520650Y-22815689D01*
X31514674Y-22814500D01*
X30965326Y-22814500D01*
X30959350Y-22815689D01*
X30959347Y-22815689D01*
X30926313Y-22822260D01*
X30892260Y-22829034D01*
X30809399Y-22884399D01*
X30754034Y-22967260D01*
X30751651Y-22979239D01*
X30751650Y-22979242D01*
X30749572Y-22989691D01*
X30717187Y-23051602D01*
X30656472Y-23086176D01*
X30627955Y-23089500D01*
X30558866Y-23089500D01*
X30491827Y-23069815D01*
X30446072Y-23017011D01*
X30435639Y-22979322D01*
X30427254Y-22904564D01*
X30427253Y-22904560D01*
X30426481Y-22897676D01*
X30371108Y-22738668D01*
X30281884Y-22595879D01*
X30197777Y-22511183D01*
X30168123Y-22481321D01*
X30168122Y-22481320D01*
X30163242Y-22476406D01*
X30157395Y-22472695D01*
X30157392Y-22472693D01*
X30026933Y-22389902D01*
X30021079Y-22386187D01*
X30008282Y-22381630D01*
X29868991Y-22332031D01*
X29868992Y-22332031D01*
X29862462Y-22329706D01*
X29695273Y-22309769D01*
X29688384Y-22310493D01*
X29688381Y-22310493D01*
X29534718Y-22326644D01*
X29534717Y-22326644D01*
X29527821Y-22327369D01*
X29521254Y-22329604D01*
X29521252Y-22329605D01*
X29374998Y-22379394D01*
X29374995Y-22379395D01*
X29368431Y-22381630D01*
X29225022Y-22469856D01*
X29220070Y-22474706D01*
X29220068Y-22474707D01*
X29109680Y-22582807D01*
X29109677Y-22582811D01*
X29104724Y-22587661D01*
X29013515Y-22729190D01*
X29011145Y-22735702D01*
X28958385Y-22880657D01*
X28955927Y-22887409D01*
X28944326Y-22979242D01*
X28937201Y-23035647D01*
X28909270Y-23099691D01*
X28851148Y-23138467D01*
X28781289Y-23139664D01*
X28771198Y-23135852D01*
X28771079Y-23136187D01*
X28659420Y-23096427D01*
X28612462Y-23079706D01*
X28445273Y-23059769D01*
X28438384Y-23060493D01*
X28438381Y-23060493D01*
X28284718Y-23076644D01*
X28284717Y-23076644D01*
X28277821Y-23077369D01*
X28271254Y-23079604D01*
X28271252Y-23079605D01*
X28124998Y-23129394D01*
X28124995Y-23129395D01*
X28118431Y-23131630D01*
X27975022Y-23219856D01*
X27970070Y-23224706D01*
X27970068Y-23224707D01*
X27859680Y-23332807D01*
X27859677Y-23332811D01*
X27854724Y-23337661D01*
X27763515Y-23479190D01*
X27761145Y-23485702D01*
X27721541Y-23594512D01*
X27705927Y-23637409D01*
X27704630Y-23647676D01*
X27686725Y-23789418D01*
X27684825Y-23804455D01*
X27688359Y-23840500D01*
X27700345Y-23962740D01*
X27701255Y-23972025D01*
X27754402Y-24131791D01*
X27757995Y-24137724D01*
X27757996Y-24137726D01*
X27821649Y-24242829D01*
X27841624Y-24275812D01*
X27846437Y-24280796D01*
X27935404Y-24372923D01*
X27958586Y-24396929D01*
X27964389Y-24400727D01*
X27964391Y-24400728D01*
X28018905Y-24436401D01*
X28099475Y-24489125D01*
X28105970Y-24491540D01*
X28105973Y-24491542D01*
X28250789Y-24545398D01*
X28250792Y-24545399D01*
X28257289Y-24547815D01*
X28424183Y-24570083D01*
X28431021Y-24569461D01*
X28497609Y-24590538D01*
X28542248Y-24644289D01*
X28550740Y-24713641D01*
X28516080Y-24781107D01*
X26863664Y-26433522D01*
X25760561Y-27536625D01*
X25751172Y-27544128D01*
X25751480Y-27544490D01*
X25744754Y-27550215D01*
X25737280Y-27554930D01*
X25731431Y-27561553D01*
X25702207Y-27594643D01*
X25696945Y-27600241D01*
X25685680Y-27611506D01*
X25683033Y-27615038D01*
X25683032Y-27615039D01*
X25679512Y-27619736D01*
X25673231Y-27627453D01*
X25642377Y-27662388D01*
X25638623Y-27670384D01*
X25637043Y-27672789D01*
X25628160Y-27687571D01*
X25626771Y-27690108D01*
X25621474Y-27697176D01*
X25618373Y-27705449D01*
X25618372Y-27705450D01*
X25605115Y-27740813D01*
X25601258Y-27749968D01*
X25581447Y-27792163D01*
X25580087Y-27800897D01*
X25579238Y-27803675D01*
X25574870Y-27820322D01*
X25574248Y-27823152D01*
X25571148Y-27831420D01*
X25570494Y-27840224D01*
X25570493Y-27840227D01*
X25567694Y-27877899D01*
X25566561Y-27887773D01*
X25564500Y-27901009D01*
X25564500Y-27916285D01*
X25564159Y-27925474D01*
X25560524Y-27974392D01*
X25562368Y-27983032D01*
X25562922Y-27991154D01*
X25564500Y-28006106D01*
X25564500Y-29149760D01*
X25540823Y-29222639D01*
X25539892Y-29223920D01*
X25535439Y-29228662D01*
X25482405Y-29269563D01*
X25412792Y-29275547D01*
X25350995Y-29242945D01*
X25337091Y-29226900D01*
X25308630Y-29187727D01*
X25292963Y-29166163D01*
X25219775Y-29105617D01*
X25172333Y-29066369D01*
X25172331Y-29066368D01*
X25166326Y-29061400D01*
X25017613Y-28991421D01*
X25009956Y-28989960D01*
X25009955Y-28989960D01*
X24907700Y-28970454D01*
X24856170Y-28960624D01*
X24692140Y-28970944D01*
X24684722Y-28973354D01*
X24684718Y-28973355D01*
X24605065Y-28999236D01*
X24535829Y-29021732D01*
X24496377Y-29046769D01*
X24403647Y-29105617D01*
X24403643Y-29105620D01*
X24397060Y-29109798D01*
X24391722Y-29115482D01*
X24391720Y-29115484D01*
X24332388Y-29178667D01*
X24272147Y-29214061D01*
X24202333Y-29211269D01*
X24142254Y-29167455D01*
X24141300Y-29166163D01*
X24087150Y-29092850D01*
X24024762Y-29046769D01*
X23985639Y-29017872D01*
X23985637Y-29017871D01*
X23978184Y-29012366D01*
X23969445Y-29009297D01*
X23969443Y-29009296D01*
X23911940Y-28989103D01*
X23850369Y-28967481D01*
X23842850Y-28966770D01*
X23842849Y-28966770D01*
X23821748Y-28964775D01*
X23821738Y-28964775D01*
X23818834Y-28964500D01*
X23311166Y-28964500D01*
X23308262Y-28964775D01*
X23308252Y-28964775D01*
X23287151Y-28966770D01*
X23287150Y-28966770D01*
X23279631Y-28967481D01*
X23218060Y-28989103D01*
X23160557Y-29009296D01*
X23160555Y-29009297D01*
X23151816Y-29012366D01*
X23144363Y-29017871D01*
X23144361Y-29017872D01*
X23105238Y-29046769D01*
X23042850Y-29092850D01*
X23037343Y-29100306D01*
X22987746Y-29167455D01*
X22962366Y-29201816D01*
X22959297Y-29210555D01*
X22959296Y-29210557D01*
X22942551Y-29258242D01*
X22917481Y-29329631D01*
X22914500Y-29361166D01*
X22914500Y-30368834D01*
X21690500Y-30368834D01*
X21690500Y-23565000D01*
X23084341Y-23565000D01*
X23084813Y-23570395D01*
X23103205Y-23780608D01*
X23104937Y-23800408D01*
X23106336Y-23805631D01*
X23106337Y-23805634D01*
X23115679Y-23840500D01*
X23166097Y-24028663D01*
X23168384Y-24033567D01*
X23168386Y-24033573D01*
X23221098Y-24146613D01*
X23265965Y-24242829D01*
X23269072Y-24247266D01*
X23269073Y-24247268D01*
X23398399Y-24431966D01*
X23398403Y-24431970D01*
X23401505Y-24436401D01*
X23568599Y-24603495D01*
X23762170Y-24739035D01*
X23976337Y-24838903D01*
X24060137Y-24861357D01*
X24199366Y-24898663D01*
X24199369Y-24898664D01*
X24204592Y-24900063D01*
X24209979Y-24900534D01*
X24209983Y-24900535D01*
X24434605Y-24920187D01*
X24440000Y-24920659D01*
X24445395Y-24920187D01*
X24670017Y-24900535D01*
X24670021Y-24900534D01*
X24675408Y-24900063D01*
X24680631Y-24898664D01*
X24680634Y-24898663D01*
X24819863Y-24861357D01*
X24903663Y-24838903D01*
X25117830Y-24739035D01*
X25311401Y-24603495D01*
X25478495Y-24436401D01*
X25481597Y-24431970D01*
X25481601Y-24431966D01*
X25610927Y-24247268D01*
X25610928Y-24247266D01*
X25614035Y-24242829D01*
X25658902Y-24146613D01*
X25711614Y-24033573D01*
X25711616Y-24033567D01*
X25713903Y-24028663D01*
X25764321Y-23840500D01*
X25773663Y-23805634D01*
X25773664Y-23805631D01*
X25775063Y-23800408D01*
X25776796Y-23780608D01*
X25795187Y-23570395D01*
X25795659Y-23565000D01*
X25788721Y-23485702D01*
X25775535Y-23334983D01*
X25775534Y-23334979D01*
X25775063Y-23329592D01*
X25763430Y-23286174D01*
X25736357Y-23185137D01*
X25713903Y-23101337D01*
X25711616Y-23096433D01*
X25711614Y-23096427D01*
X25616325Y-22892082D01*
X25614035Y-22887171D01*
X25580083Y-22838682D01*
X25481601Y-22698034D01*
X25481597Y-22698030D01*
X25478495Y-22693599D01*
X25311401Y-22526505D01*
X25117830Y-22390965D01*
X24903663Y-22291097D01*
X24819863Y-22268643D01*
X24680634Y-22231337D01*
X24680631Y-22231336D01*
X24675408Y-22229937D01*
X24670021Y-22229466D01*
X24670017Y-22229465D01*
X24445395Y-22209813D01*
X24440000Y-22209341D01*
X24434605Y-22209813D01*
X24209983Y-22229465D01*
X24209979Y-22229466D01*
X24204592Y-22229937D01*
X24199369Y-22231336D01*
X24199366Y-22231337D01*
X24060137Y-22268643D01*
X23976337Y-22291097D01*
X23971433Y-22293384D01*
X23971427Y-22293386D01*
X23893540Y-22329706D01*
X23762171Y-22390965D01*
X23757734Y-22394072D01*
X23757732Y-22394073D01*
X23573034Y-22523399D01*
X23573033Y-22523400D01*
X23568599Y-22526505D01*
X23401505Y-22693599D01*
X23398403Y-22698030D01*
X23398399Y-22698034D01*
X23299917Y-22838682D01*
X23265965Y-22887171D01*
X23263675Y-22892082D01*
X23168386Y-23096427D01*
X23168384Y-23096433D01*
X23166097Y-23101337D01*
X23143643Y-23185137D01*
X23116571Y-23286174D01*
X23104937Y-23329592D01*
X23104466Y-23334979D01*
X23104465Y-23334983D01*
X23091279Y-23485702D01*
X23084341Y-23565000D01*
X21690500Y-23565000D01*
X21690500Y-22108972D01*
X30490000Y-22108972D01*
X30490363Y-22115669D01*
X30495803Y-22165744D01*
X30499371Y-22180753D01*
X30543817Y-22299311D01*
X30552212Y-22314646D01*
X30627516Y-22415124D01*
X30639876Y-22427484D01*
X30740354Y-22502788D01*
X30755689Y-22511183D01*
X30874247Y-22555629D01*
X30889256Y-22559197D01*
X30939331Y-22564637D01*
X30946028Y-22565000D01*
X30972170Y-22565000D01*
X30987169Y-22560596D01*
X30988356Y-22559226D01*
X30990000Y-22551668D01*
X30990000Y-22547170D01*
X31490000Y-22547170D01*
X31494404Y-22562169D01*
X31495774Y-22563356D01*
X31503332Y-22565000D01*
X31533972Y-22565000D01*
X31540669Y-22564637D01*
X31590744Y-22559197D01*
X31605747Y-22555630D01*
X31621471Y-22549735D01*
X31691154Y-22544634D01*
X31708529Y-22549735D01*
X31724253Y-22555630D01*
X31739256Y-22559197D01*
X31789331Y-22564637D01*
X31796028Y-22565000D01*
X31822170Y-22565000D01*
X31837169Y-22560596D01*
X31838356Y-22559226D01*
X31840000Y-22551668D01*
X31840000Y-21932830D01*
X31835596Y-21917831D01*
X31834226Y-21916644D01*
X31826668Y-21915000D01*
X31507830Y-21915000D01*
X31492831Y-21919404D01*
X31491644Y-21920774D01*
X31490000Y-21928332D01*
X31490000Y-22547170D01*
X30990000Y-22547170D01*
X30990000Y-21932830D01*
X30985596Y-21917831D01*
X30984226Y-21916644D01*
X30976668Y-21915000D01*
X30507830Y-21915000D01*
X30492831Y-21919404D01*
X30491644Y-21920774D01*
X30490000Y-21928332D01*
X30490000Y-22108972D01*
X21690500Y-22108972D01*
X21690500Y-19611636D01*
X24315001Y-19611636D01*
X24315331Y-19618015D01*
X24325151Y-19712671D01*
X24327997Y-19725849D01*
X24378920Y-19878481D01*
X24384991Y-19891443D01*
X24469438Y-20027907D01*
X24478325Y-20039120D01*
X24591904Y-20152501D01*
X24603135Y-20161370D01*
X24739741Y-20245575D01*
X24752718Y-20251627D01*
X24905446Y-20302285D01*
X24918613Y-20305108D01*
X25012019Y-20314678D01*
X25018325Y-20315000D01*
X25172170Y-20315000D01*
X25187169Y-20310596D01*
X25188356Y-20309226D01*
X25190000Y-20301668D01*
X25190000Y-20297169D01*
X25690000Y-20297169D01*
X25694404Y-20312168D01*
X25695774Y-20313355D01*
X25703332Y-20314999D01*
X25861636Y-20314999D01*
X25868015Y-20314669D01*
X25962671Y-20304849D01*
X25975849Y-20302003D01*
X26128481Y-20251080D01*
X26141443Y-20245009D01*
X26277907Y-20160562D01*
X26289120Y-20151675D01*
X26402501Y-20038096D01*
X26411368Y-20026868D01*
X26484712Y-19907882D01*
X26536646Y-19861143D01*
X26605606Y-19849901D01*
X26669696Y-19877726D01*
X26689495Y-19898584D01*
X26702157Y-19915479D01*
X26702159Y-19915481D01*
X26707454Y-19922546D01*
X26714519Y-19927841D01*
X26815109Y-20003230D01*
X26815111Y-20003231D01*
X26822176Y-20008526D01*
X26956420Y-20058851D01*
X27017623Y-20065500D01*
X27051596Y-20065500D01*
X27519712Y-20065499D01*
X27586751Y-20085183D01*
X27607393Y-20101818D01*
X28256702Y-20751127D01*
X28266400Y-20762040D01*
X28286782Y-20787894D01*
X28333684Y-20820310D01*
X28336843Y-20822567D01*
X28382732Y-20856462D01*
X28389356Y-20858788D01*
X28395130Y-20862779D01*
X28403969Y-20865574D01*
X28403970Y-20865575D01*
X28427738Y-20873092D01*
X28449510Y-20879977D01*
X28453178Y-20881201D01*
X28475711Y-20889114D01*
X28498257Y-20897031D01*
X28498258Y-20897031D01*
X28507000Y-20900101D01*
X28514013Y-20900377D01*
X28520708Y-20902494D01*
X28527138Y-20903000D01*
X28578357Y-20903000D01*
X28583225Y-20903096D01*
X28629341Y-20904908D01*
X28638607Y-20905272D01*
X28645533Y-20903436D01*
X28653454Y-20903000D01*
X30412773Y-20903000D01*
X30479812Y-20922685D01*
X30525567Y-20975489D01*
X30535511Y-21044647D01*
X30528882Y-21070527D01*
X30499371Y-21149247D01*
X30495803Y-21164256D01*
X30490363Y-21214331D01*
X30490000Y-21221028D01*
X30490000Y-21397170D01*
X30494404Y-21412169D01*
X30495774Y-21413356D01*
X30503332Y-21415000D01*
X31933718Y-21415000D01*
X32000757Y-21434685D01*
X32014920Y-21445287D01*
X32035772Y-21463355D01*
X32043332Y-21465000D01*
X32116000Y-21465000D01*
X32183039Y-21484685D01*
X32228794Y-21537489D01*
X32240000Y-21589000D01*
X32240000Y-22547170D01*
X32244404Y-22562169D01*
X32245774Y-22563356D01*
X32253332Y-22565000D01*
X32283972Y-22565000D01*
X32290669Y-22564637D01*
X32340744Y-22559197D01*
X32355753Y-22555629D01*
X32474311Y-22511183D01*
X32489646Y-22502788D01*
X32590124Y-22427484D01*
X32602487Y-22415121D01*
X32639949Y-22365135D01*
X32695906Y-22323294D01*
X32739175Y-22315500D01*
X33064674Y-22315500D01*
X33070650Y-22314311D01*
X33070653Y-22314311D01*
X33103687Y-22307740D01*
X33137740Y-22300966D01*
X33147896Y-22294180D01*
X33159178Y-22289507D01*
X33159829Y-22291079D01*
X33212783Y-22274496D01*
X33270072Y-22291318D01*
X33270822Y-22289507D01*
X33282104Y-22294180D01*
X33292260Y-22300966D01*
X33326313Y-22307740D01*
X33359347Y-22314311D01*
X33359350Y-22314311D01*
X33365326Y-22315500D01*
X33914674Y-22315500D01*
X33920650Y-22314311D01*
X33920653Y-22314311D01*
X33953687Y-22307740D01*
X33987740Y-22300966D01*
X34070601Y-22245601D01*
X34125966Y-22162740D01*
X34135329Y-22115669D01*
X34139311Y-22095653D01*
X34139311Y-22095650D01*
X34140500Y-22089674D01*
X34140500Y-21240326D01*
X34136662Y-21221028D01*
X34128349Y-21179241D01*
X34125966Y-21167260D01*
X34098897Y-21126748D01*
X34078000Y-21057858D01*
X34078000Y-20548351D01*
X34078859Y-20533777D01*
X34081639Y-20510292D01*
X34081639Y-20510289D01*
X34082728Y-20501087D01*
X34072483Y-20444990D01*
X34071845Y-20441159D01*
X34064744Y-20393923D01*
X34063366Y-20384756D01*
X34060327Y-20378428D01*
X34059066Y-20371521D01*
X34032769Y-20320898D01*
X34031034Y-20317424D01*
X34010365Y-20274381D01*
X34010364Y-20274379D01*
X34006353Y-20266027D01*
X34001589Y-20260873D01*
X33998352Y-20254642D01*
X33994163Y-20249737D01*
X33957960Y-20213534D01*
X33954585Y-20210025D01*
X33923237Y-20176113D01*
X33923236Y-20176112D01*
X33916949Y-20169311D01*
X33910758Y-20165715D01*
X33904845Y-20160419D01*
X32773297Y-19028872D01*
X32763599Y-19017959D01*
X32748957Y-18999385D01*
X32748955Y-18999383D01*
X32743218Y-18992106D01*
X32696302Y-18959680D01*
X32693143Y-18957423D01*
X32654723Y-18929045D01*
X32647269Y-18923539D01*
X32640646Y-18921213D01*
X32634870Y-18917221D01*
X32626038Y-18914428D01*
X32626030Y-18914424D01*
X32580458Y-18900012D01*
X32576762Y-18898779D01*
X32531745Y-18882970D01*
X32523000Y-18879899D01*
X32515987Y-18879623D01*
X32509292Y-18877506D01*
X32502862Y-18877000D01*
X32451643Y-18877000D01*
X32446775Y-18876904D01*
X32400659Y-18875092D01*
X32391393Y-18874728D01*
X32384467Y-18876564D01*
X32376546Y-18877000D01*
X32360593Y-18877000D01*
X32293554Y-18857315D01*
X32259867Y-18821171D01*
X32258526Y-18822176D01*
X32177841Y-18714519D01*
X32172546Y-18707454D01*
X32165481Y-18702159D01*
X32064891Y-18626770D01*
X32064889Y-18626769D01*
X32057824Y-18621474D01*
X31923580Y-18571149D01*
X31862377Y-18564500D01*
X31440063Y-18564500D01*
X31017624Y-18564501D01*
X30956420Y-18571149D01*
X30822176Y-18621474D01*
X30815111Y-18626769D01*
X30815109Y-18626770D01*
X30714519Y-18702159D01*
X30707454Y-18707454D01*
X30702159Y-18714519D01*
X30702156Y-18714522D01*
X30689563Y-18731325D01*
X30633606Y-18773166D01*
X30563912Y-18778112D01*
X30502607Y-18744593D01*
X30484893Y-18722211D01*
X30410560Y-18602090D01*
X30401675Y-18590880D01*
X30288096Y-18477499D01*
X30276865Y-18468630D01*
X30140259Y-18384425D01*
X30127282Y-18378373D01*
X29974554Y-18327715D01*
X29961387Y-18324892D01*
X29867981Y-18315322D01*
X29861675Y-18315000D01*
X29707830Y-18315000D01*
X29692831Y-18319404D01*
X29691644Y-18320774D01*
X29690000Y-18328332D01*
X29690000Y-19441000D01*
X29670315Y-19508039D01*
X29617511Y-19553794D01*
X29566000Y-19565000D01*
X29314000Y-19565000D01*
X29246961Y-19545315D01*
X29201206Y-19492511D01*
X29190000Y-19441000D01*
X29190000Y-18332831D01*
X29185596Y-18317832D01*
X29184226Y-18316645D01*
X29176668Y-18315001D01*
X29018364Y-18315001D01*
X29011985Y-18315331D01*
X28917329Y-18325151D01*
X28904151Y-18327997D01*
X28751519Y-18378920D01*
X28738557Y-18384991D01*
X28602093Y-18469438D01*
X28590880Y-18478325D01*
X28477499Y-18591904D01*
X28468632Y-18603132D01*
X28395288Y-18722118D01*
X28343354Y-18768857D01*
X28274394Y-18780099D01*
X28210304Y-18752274D01*
X28190505Y-18731416D01*
X28177843Y-18714521D01*
X28177841Y-18714519D01*
X28172546Y-18707454D01*
X28165481Y-18702159D01*
X28064891Y-18626770D01*
X28064889Y-18626769D01*
X28057824Y-18621474D01*
X27923580Y-18571149D01*
X27862377Y-18564500D01*
X27440063Y-18564500D01*
X27017624Y-18564501D01*
X26956420Y-18571149D01*
X26822176Y-18621474D01*
X26815111Y-18626769D01*
X26815109Y-18626770D01*
X26714519Y-18702159D01*
X26707454Y-18707454D01*
X26702159Y-18714519D01*
X26702156Y-18714522D01*
X26689563Y-18731325D01*
X26633606Y-18773166D01*
X26563912Y-18778112D01*
X26502607Y-18744593D01*
X26484893Y-18722211D01*
X26410560Y-18602090D01*
X26401675Y-18590880D01*
X26288096Y-18477499D01*
X26276865Y-18468630D01*
X26140259Y-18384425D01*
X26127282Y-18378373D01*
X25974554Y-18327715D01*
X25961387Y-18324892D01*
X25867981Y-18315322D01*
X25861675Y-18315000D01*
X25707830Y-18315000D01*
X25692831Y-18319404D01*
X25691644Y-18320774D01*
X25690000Y-18328332D01*
X25690000Y-20297169D01*
X25190000Y-20297169D01*
X25190000Y-19582830D01*
X25185596Y-19567831D01*
X25184226Y-19566644D01*
X25176668Y-19565000D01*
X24332831Y-19565000D01*
X24317832Y-19569404D01*
X24316645Y-19570774D01*
X24315001Y-19578332D01*
X24315001Y-19611636D01*
X21690500Y-19611636D01*
X21690500Y-19047170D01*
X24315000Y-19047170D01*
X24319404Y-19062169D01*
X24320774Y-19063356D01*
X24328332Y-19065000D01*
X25172170Y-19065000D01*
X25187169Y-19060596D01*
X25188356Y-19059226D01*
X25190000Y-19051668D01*
X25190000Y-18332831D01*
X25185596Y-18317832D01*
X25184226Y-18316645D01*
X25176668Y-18315001D01*
X25018364Y-18315001D01*
X25011985Y-18315331D01*
X24917329Y-18325151D01*
X24904151Y-18327997D01*
X24751519Y-18378920D01*
X24738557Y-18384991D01*
X24602093Y-18469438D01*
X24590880Y-18478325D01*
X24477499Y-18591904D01*
X24468630Y-18603135D01*
X24384425Y-18739741D01*
X24378373Y-18752718D01*
X24327715Y-18905446D01*
X24324892Y-18918613D01*
X24315322Y-19012019D01*
X24315000Y-19018325D01*
X24315000Y-19047170D01*
X21690500Y-19047170D01*
X21690500Y-15517623D01*
X24564500Y-15517623D01*
X24564501Y-16112376D01*
X24571149Y-16173580D01*
X24621474Y-16307824D01*
X24707454Y-16422546D01*
X24714519Y-16427841D01*
X24815109Y-16503230D01*
X24815111Y-16503231D01*
X24822176Y-16508526D01*
X24956420Y-16558851D01*
X25017623Y-16565500D01*
X25439937Y-16565500D01*
X25862376Y-16565499D01*
X25923580Y-16558851D01*
X26057824Y-16508526D01*
X26064889Y-16503231D01*
X26064891Y-16503230D01*
X26165481Y-16427841D01*
X26172546Y-16422546D01*
X26258526Y-16307824D01*
X26308851Y-16173580D01*
X26315500Y-16112377D01*
X26315499Y-15517624D01*
X26315499Y-15517623D01*
X26564500Y-15517623D01*
X26564501Y-16112376D01*
X26571149Y-16173580D01*
X26621474Y-16307824D01*
X26707454Y-16422546D01*
X26714519Y-16427841D01*
X26815109Y-16503230D01*
X26815111Y-16503231D01*
X26822176Y-16508526D01*
X26830444Y-16511626D01*
X26830445Y-16511626D01*
X26949148Y-16556125D01*
X26956420Y-16558851D01*
X26959407Y-16559175D01*
X27023008Y-16597865D01*
X27044443Y-16622741D01*
X27050629Y-16630531D01*
X27058522Y-16641336D01*
X27069322Y-16652136D01*
X27075579Y-16658875D01*
X27101833Y-16689345D01*
X27101836Y-16689348D01*
X27107600Y-16696037D01*
X27115015Y-16700843D01*
X27121139Y-16706185D01*
X27132837Y-16715651D01*
X27536625Y-17119439D01*
X27544128Y-17128828D01*
X27544490Y-17128520D01*
X27550215Y-17135246D01*
X27554930Y-17142720D01*
X27561553Y-17148569D01*
X27594643Y-17177793D01*
X27600241Y-17183055D01*
X27611507Y-17194321D01*
X27618152Y-17199301D01*
X27619745Y-17200495D01*
X27627460Y-17206776D01*
X27662388Y-17237623D01*
X27670387Y-17241379D01*
X27672811Y-17242971D01*
X27687595Y-17251854D01*
X27690107Y-17253229D01*
X27697176Y-17258527D01*
X27705446Y-17261627D01*
X27705451Y-17261630D01*
X27740827Y-17274892D01*
X27749984Y-17278750D01*
X27792163Y-17298553D01*
X27800893Y-17299912D01*
X27803653Y-17300756D01*
X27820322Y-17305129D01*
X27823145Y-17305750D01*
X27831420Y-17308852D01*
X27840230Y-17309507D01*
X27840231Y-17309507D01*
X27856125Y-17310688D01*
X27877903Y-17312306D01*
X27887773Y-17313439D01*
X27901009Y-17315500D01*
X27916285Y-17315500D01*
X27925474Y-17315841D01*
X27974392Y-17319476D01*
X27983032Y-17317632D01*
X27991154Y-17317078D01*
X28006106Y-17315500D01*
X30870039Y-17315500D01*
X30881985Y-17316835D01*
X30882023Y-17316361D01*
X30890832Y-17317070D01*
X30899447Y-17319019D01*
X30908264Y-17318472D01*
X30908265Y-17318472D01*
X30952328Y-17315738D01*
X30960007Y-17315500D01*
X30975940Y-17315500D01*
X30980308Y-17314874D01*
X30980314Y-17314874D01*
X30986130Y-17314041D01*
X30996029Y-17313027D01*
X31028452Y-17311015D01*
X31033722Y-17310688D01*
X31042538Y-17310141D01*
X31050849Y-17307140D01*
X31053681Y-17306554D01*
X31070384Y-17302390D01*
X31073168Y-17301576D01*
X31081918Y-17300323D01*
X31124348Y-17281031D01*
X31133554Y-17277284D01*
X31169075Y-17264461D01*
X31169077Y-17264460D01*
X31177387Y-17261460D01*
X31184525Y-17256245D01*
X31187085Y-17254884D01*
X31201955Y-17246195D01*
X31204385Y-17244641D01*
X31212428Y-17240984D01*
X31247743Y-17210554D01*
X31255531Y-17204371D01*
X31266336Y-17196478D01*
X31277136Y-17185678D01*
X31283875Y-17179421D01*
X31314345Y-17153167D01*
X31314348Y-17153164D01*
X31321037Y-17147400D01*
X31325843Y-17139985D01*
X31331185Y-17133861D01*
X31340651Y-17122163D01*
X31744439Y-16718375D01*
X31753828Y-16710872D01*
X31753520Y-16710510D01*
X31760246Y-16704785D01*
X31767720Y-16700070D01*
X31802793Y-16660357D01*
X31808055Y-16654759D01*
X31819321Y-16643493D01*
X31825499Y-16635251D01*
X31831777Y-16627539D01*
X31859258Y-16596422D01*
X31921505Y-16559076D01*
X31923580Y-16558851D01*
X31930853Y-16556124D01*
X31930855Y-16556124D01*
X32049555Y-16511626D01*
X32049556Y-16511626D01*
X32057824Y-16508526D01*
X32064889Y-16503231D01*
X32064891Y-16503230D01*
X32165481Y-16427841D01*
X32172546Y-16422546D01*
X32258526Y-16307824D01*
X32308851Y-16173580D01*
X32315500Y-16112377D01*
X32315499Y-15517624D01*
X32308851Y-15456420D01*
X32258526Y-15322176D01*
X32172546Y-15207454D01*
X32165481Y-15202159D01*
X32064891Y-15126770D01*
X32064889Y-15126769D01*
X32057824Y-15121474D01*
X31923580Y-15071149D01*
X31862377Y-15064500D01*
X31440063Y-15064500D01*
X31017624Y-15064501D01*
X30956420Y-15071149D01*
X30822176Y-15121474D01*
X30815111Y-15126769D01*
X30815109Y-15126770D01*
X30714519Y-15202159D01*
X30707454Y-15207454D01*
X30621474Y-15322176D01*
X30571149Y-15456420D01*
X30564500Y-15517623D01*
X30564501Y-16112376D01*
X30564864Y-16115714D01*
X30564864Y-16115717D01*
X30571149Y-16173580D01*
X30568724Y-16173843D01*
X30565703Y-16231601D01*
X30524910Y-16288326D01*
X30459926Y-16313992D01*
X30448713Y-16314500D01*
X30431287Y-16314500D01*
X30364248Y-16294815D01*
X30318493Y-16242011D01*
X30308708Y-16173961D01*
X30308851Y-16173580D01*
X30315500Y-16112377D01*
X30315499Y-15517624D01*
X30308851Y-15456420D01*
X30258526Y-15322176D01*
X30172546Y-15207454D01*
X30165481Y-15202159D01*
X30064891Y-15126770D01*
X30064889Y-15126769D01*
X30057824Y-15121474D01*
X29923580Y-15071149D01*
X29862377Y-15064500D01*
X29440063Y-15064500D01*
X29017624Y-15064501D01*
X28956420Y-15071149D01*
X28822176Y-15121474D01*
X28815111Y-15126769D01*
X28815109Y-15126770D01*
X28714519Y-15202159D01*
X28707454Y-15207454D01*
X28621474Y-15322176D01*
X28571149Y-15456420D01*
X28564500Y-15517623D01*
X28564501Y-16112376D01*
X28564864Y-16115714D01*
X28564864Y-16115717D01*
X28571149Y-16173580D01*
X28568724Y-16173843D01*
X28565703Y-16231601D01*
X28524910Y-16288326D01*
X28459926Y-16313992D01*
X28448713Y-16314500D01*
X28431287Y-16314500D01*
X28364248Y-16294815D01*
X28318493Y-16242011D01*
X28308708Y-16173961D01*
X28308851Y-16173580D01*
X28315500Y-16112377D01*
X28315499Y-15517624D01*
X28308851Y-15456420D01*
X28258526Y-15322176D01*
X28172546Y-15207454D01*
X28165481Y-15202159D01*
X28064891Y-15126770D01*
X28064889Y-15126769D01*
X28057824Y-15121474D01*
X27923580Y-15071149D01*
X27862377Y-15064500D01*
X27440063Y-15064500D01*
X27017624Y-15064501D01*
X26956420Y-15071149D01*
X26822176Y-15121474D01*
X26815111Y-15126769D01*
X26815109Y-15126770D01*
X26714519Y-15202159D01*
X26707454Y-15207454D01*
X26621474Y-15322176D01*
X26571149Y-15456420D01*
X26564500Y-15517623D01*
X26315499Y-15517623D01*
X26308851Y-15456420D01*
X26258526Y-15322176D01*
X26172546Y-15207454D01*
X26165481Y-15202159D01*
X26064891Y-15126770D01*
X26064889Y-15126769D01*
X26057824Y-15121474D01*
X25923580Y-15071149D01*
X25862377Y-15064500D01*
X25440063Y-15064500D01*
X25017624Y-15064501D01*
X24956420Y-15071149D01*
X24822176Y-15121474D01*
X24815111Y-15126769D01*
X24815109Y-15126770D01*
X24714519Y-15202159D01*
X24707454Y-15207454D01*
X24621474Y-15322176D01*
X24571149Y-15456420D01*
X24564500Y-15517623D01*
X21690500Y-15517623D01*
X21690500Y-14939500D01*
X21710185Y-14872461D01*
X21762989Y-14826706D01*
X21814500Y-14815500D01*
X35065500Y-14815500D01*
X35132539Y-14835185D01*
G37*
%TD.AperFunction*%
%TD*%
M02*
