M48
; DRILL file {KiCad (6.0.4)} date Thu Jul 21 21:16:10 2022
; FORMAT={-:-/ absolute / inch / decimal}
; #@! TF.CreationDate,2022-07-21T21:16:10-04:00
; #@! TF.GenerationSoftware,Kicad,Pcbnew,(6.0.4)
; #@! TF.FileFunction,Plated,1,2,PTH
FMAT,2
INCH
; #@! TA.AperFunction,Plated,PTH,ViaDrill
T1C0.0197
; #@! TA.AperFunction,Plated,PTH,ComponentDrill
T2C0.0197
%
G90
G05
T1
X1.1197Y-0.9376
X1.1689Y-0.9081
T2
X0.9278Y-1.1758
X0.977Y-1.1758
X1.0262Y-1.1758
X1.0754Y-1.1758
T2
G00X0.9976Y-0.6226
M15
G01X1.0055Y-0.6226
M16
G05
G00X0.9976Y-0.7604
M15
G01X1.0055Y-0.7604
M16
G05
G00X1.0764Y-0.6226
M15
G01X1.0843Y-0.6226
M16
G05
G00X1.0764Y-0.7604
M15
G01X1.0843Y-0.7604
M16
G05
G00X1.1551Y-0.6226
M15
G01X1.163Y-0.6226
M16
G05
G00X1.1551Y-0.7604
M15
G01X1.163Y-0.7604
M16
G05
G00X1.2339Y-0.6226
M15
G01X1.2417Y-0.6226
M16
G05
G00X1.2339Y-0.7604
M15
G01X1.2417Y-0.7604
M16
G05
T0
M30
